STARTFONT 2.3
FONT -FontForge-Fredoka One-Book-R-Normal--32-320-72-72-P-184-ISO10646-1
SIZE 32 72 72  2
FONTBOUNDINGBOX 43 39 -5 -8
COMMENT "Generated by fontforge, http://fontforge.sourceforge.net"
COMMENT "Copyright (c) 2011 Milena B Brandao (milenabbrandao@gmail.com), with Reserved Font Name "Fredoka""
STARTPROPERTIES 40
FOUNDRY "FontForge"
FAMILY_NAME "Fredoka One"
WEIGHT_NAME "Book"
SLANT "R"
SETWIDTH_NAME "Normal"
ADD_STYLE_NAME ""
PIXEL_SIZE 32
POINT_SIZE 320
RESOLUTION_X 72
RESOLUTION_Y 72
SPACING "P"
AVERAGE_WIDTH 184
CHARSET_REGISTRY "ISO10646"
CHARSET_ENCODING "1"
FONTNAME_REGISTRY ""
CHARSET_COLLECTIONS "ISO10646-1"
BITS_PER_PIXEL 2
FONT_NAME "FredokaOne-Regular"
FACE_NAME "Fredoka One"
COPYRIGHT "Copyright (c) 2011 Milena B Brandao (milenabbrandao@gmail.com), with Reserved Font Name "Fredoka""
FONT_VERSION "1.001"
FONT_ASCENT 26
FONT_DESCENT 6
UNDERLINE_POSITION -3
UNDERLINE_THICKNESS 2
X_HEIGHT 16
CAP_HEIGHT 23
RAW_ASCENT 800
RAW_DESCENT 200
NORM_SPACE 8
RELATIVE_WEIGHT 40
RELATIVE_SETWIDTH 50
SUPERSCRIPT_X 0
SUPERSCRIPT_Y 15
SUPERSCRIPT_SIZE 20
SUBSCRIPT_X 0
SUBSCRIPT_Y 4
SUBSCRIPT_SIZE 20
AVG_LOWERCASE_WIDTH 182
AVG_UPPERCASE_WIDTH 220
ENDPROPERTIES
CHARS 235
STARTCHAR space
ENCODING 32
SWIDTH 253 0
DWIDTH 8 0
BBX 1 1 0 0
BITMAP
00
ENDCHAR
STARTCHAR exclam
ENCODING 33
SWIDTH 267 0
DWIDTH 9 0
BBX 7 24 1 0
BITMAP
1A40
7FF0
BFF0
BFF0
BFF0
BFF0
BFF0
BFF0
BFF0
BFF0
BFF0
BFF0
BFF0
BFF0
7FF0
1A40
0000
0000
2FD0
BFF0
BFF4
BFF4
BFF0
2FD0
ENDCHAR
STARTCHAR quotedbl
ENCODING 34
SWIDTH 429 0
DWIDTH 14 0
BBX 13 12 0 12
BITMAP
05401500
2FD0BF80
3FE0FF80
7FF0FFC0
3FF0FFC0
3FE0FFC0
3FE0FF80
2FD0BF80
2FD0BF40
1FC07F00
0F803E00
06001800
ENDCHAR
STARTCHAR numbersign
ENCODING 35
SWIDTH 749 0
DWIDTH 24 0
BBX 24 24 0 0
BITMAP
000054001500
0002FD007F80
0003FE00BFC0
0007FD00FF80
0007FD00FF80
000BFC01FF40
015BFD56FF54
0BFFFFFFFFFD
0FFFFFFFFFFD
1FFFFFFFFFFD
0BFFFFFFFFF8
002FF007FD00
002FF007FD00
003FE00BFC00
1ABFFAAFFE90
7FFFFFFFFFF0
7FFFFFFFFFF0
7FFFFFFFFFF0
2AFFEAAFFA80
00FF802FF000
00FF802FF000
01FF402FE000
01FF003FD000
00B9002F8000
ENDCHAR
STARTCHAR dollar
ENCODING 36
SWIDTH 475 0
DWIDTH 15 0
BBX 14 28 1 -3
BITMAP
002A0000
007F4000
007F4000
007F4000
01BF9000
0BFFFD00
2FFFFF00
7FFFFF40
BFE6FE00
BF802800
BFC00000
BFF90000
3FFFE400
1FFFFF00
06FFFF80
001BFFC0
0000BFD0
7E007FD0
FF80BFD0
FFFBFFC0
BFFFFF40
2FFFFE00
07FFF400
007F8000
007F4000
007F4000
003F4000
00190000
ENDCHAR
STARTCHAR percent
ENCODING 37
SWIDTH 838 0
DWIDTH 27 0
BBX 25 26 1 -1
BITMAP
000000001E0000
006500003F0000
0BFFD000BE0000
2FFFF000FC0000
3FFFF802F80000
7F97FC03F00000
BF02FC0BE00000
BE01FC1FC00000
BF02FC2F400000
7F9BF87F000000
3FFFF4BD000000
1FFFF1FC000000
07FF82F4000000
005407E06F9000
00000FD2FFF800
00001F87FFFE00
00003F4BFFFF00
00007E0FE07F40
0000FD1FD03F40
0002F81FD03F80
0003F00FE07F40
000BE00FFFFF40
000FC007FFFE00
002F8002FFFD00
003F00006FE000
001D0000000000
ENDCHAR
STARTCHAR ampersand
ENCODING 38
SWIDTH 748 0
DWIDTH 24 0
BBX 24 26 0 -1
BITMAP
00016A400000
001FFFF80000
007FFFFE0000
00FFFFFF4000
01FFEBFF8000
02FF41FF8000
02FF41FF8000
02FF47FF8000
02FFAFFF4000
01FFFFFE0000
00FFFFF80000
00BFFFD00000
01FFFF400000
07FFFE001B90
0FFFFF407FE0
1FFFFFD0BFE0
3FFEFFF5FFD0
3FF8FFFFFFC0
7FF47FFFFF80
3FF81FFFFF40
3FFFABFFFFF8
2FFFFFFFFFFC
0FFFFFFFFFFD
07FFFFFEFFFC
006FFF906BF8
000050000000
ENDCHAR
STARTCHAR quotesingle
ENCODING 39
SWIDTH 208 0
DWIDTH 7 0
BBX 6 12 0 12
BITMAP
0540
2FD0
3FE0
7FF0
3FF0
3FE0
3FE0
2FD0
2FD0
1FC0
0F80
0600
ENDCHAR
STARTCHAR parenleft
ENCODING 40
SWIDTH 384 0
DWIDTH 12 0
BBX 11 33 1 -8
BITMAP
0006A4
002FF8
00FFF8
02FFF8
07FF50
0FFD00
1FF800
2FF000
3FE000
7FD000
7FD000
BFC000
BFC000
FFC000
FF8000
FF8000
FF8000
FF8000
FFC000
FFC000
BFC000
BFC000
7FD000
3FE000
2FF000
1FF400
0FF800
0BFE00
03FFE4
01FFF8
007FF8
001BF8
000050
ENDCHAR
STARTCHAR parenright
ENCODING 41
SWIDTH 384 0
DWIDTH 12 0
BBX 12 33 0 -8
BITMAP
2A4000
7FF400
BFFD00
7FFF00
16FF80
00BFD0
007FE0
002FF0
001FF4
000FF8
000FF8
000BFC
000BFC
000BFD
000BFD
0007FD
0007FD
000BFD
000BFD
000BFC
000BFC
000BFC
000FF8
001FF4
002FF0
003FE0
007FD0
01FFC0
2FFF40
7FFE00
7FF800
7FD000
050000
ENDCHAR
STARTCHAR asterisk
ENCODING 42
SWIDTH 503 0
DWIDTH 16 0
BBX 16 15 0 9
BITMAP
000AA000
001FF800
002FF800
052FF850
2FFFFFFC
7FFFFFFD
7FFFFFFE
7FFFFFFD
1BFFFFE4
01FFFF80
03FFFFD0
0BFFFFE0
0BFFBFF0
07FD3FD0
00B41A00
ENDCHAR
STARTCHAR plus
ENCODING 43
SWIDTH 527 0
DWIDTH 17 0
BBX 16 16 0 1
BITMAP
00015000
000BF800
000FFC00
000FFC00
000FFC00
055FFD54
3FFFFFFE
3FFFFFFF
7FFFFFFF
3FFFFFFF
1AAFFEA9
000FFC00
000FFC00
000FFC00
000FFC00
0006A400
ENDCHAR
STARTCHAR comma
ENCODING 44
SWIDTH 238 0
DWIDTH 8 0
BBX 7 11 0 -5
BITMAP
1BE0
3FF8
3FF8
7FF8
3FF8
1FF8
03F4
0BF0
1FD0
3F80
3D00
ENDCHAR
STARTCHAR hyphen
ENCODING 45
SWIDTH 433 0
DWIDTH 14 0
BBX 13 6 0 4
BITMAP
05AAA500
3FFFFF80
7FFFFFC0
7FFFFFC0
3FFFFFC0
06AAA900
ENDCHAR
STARTCHAR period
ENCODING 46
SWIDTH 237 0
DWIDTH 8 0
BBX 7 6 0 0
BITMAP
1FE0
3FF8
7FF8
7FF8
3FF8
1FE0
ENDCHAR
STARTCHAR slash
ENCODING 47
SWIDTH 526 0
DWIDTH 17 0
BBX 17 27 0 -2
BITMAP
000001F800
000002FF00
000007FF40
00000BFF00
00001FFE00
00002FFC00
00007FF800
0000BFF400
0001FFE000
0002FFD000
0003FF8000
000BFF4000
000FFE0000
002FFD0000
003FF80000
00BFF40000
00FFE00000
01FFD00000
03FFC00000
07FF400000
0FFF000000
1FFD000000
3FFC000000
7FF4000000
7FF0000000
3FE0000000
0680000000
ENDCHAR
STARTCHAR zero
ENCODING 48
SWIDTH 608 0
DWIDTH 19 0
BBX 19 25 0 -1
BITMAP
0006AA4000
002FFFF400
00FFFFFE00
03FFFFFF40
07FFFFFFC0
0FFFFFFFD0
1FFF42FFE0
2FFD00FFF0
3FFC007FF4
3FF8007FF4
3FF8003FF8
3FF4003FF8
7FF4003FF8
3FF8003FF8
3FF8003FF8
3FF8007FF4
2FFC00BFF4
2FFE00FFF0
1FFF97FFE0
0FFFFFFFD0
07FFFFFF80
02FFFFFF00
00BFFFFD00
001BFFE000
0000550000
ENDCHAR
STARTCHAR one
ENCODING 49
SWIDTH 407 0
DWIDTH 13 0
BBX 12 24 0 0
BITMAP
000054
0007FD
001FFE
007FFE
02FFFE
0BFFFE
2FFFFE
7FFFFE
7FFFFE
3FFFFE
0B9FFE
000FFE
000FFE
000FFE
000FFE
000FFE
000FFE
000FFE
000FFE
000FFE
000FFE
000FFE
000BFE
0007F9
ENDCHAR
STARTCHAR two
ENCODING 50
SWIDTH 609 0
DWIDTH 19 0
BBX 19 24 0 0
BITMAP
0006AA4000
007FFFE400
01FFFFFD00
07FFFFFF40
0FFFFFFFC0
2FFFFFFFD0
3FFE02FFE0
3FF800FFF0
7FF800BFF0
7FF400BFF0
3FF401FFF0
0A9007FFE0
00001FFFD0
0000BFFF80
0007FFFE00
006FFFF800
01FFFFE000
0BFFFE4000
1FFFFAAA90
3FFFFFFFF8
3FFFFFFFFC
3FFFFFFFFC
2FFFFFFFFC
0BFFFFFFF4
ENDCHAR
STARTCHAR three
ENCODING 51
SWIDTH 608 0
DWIDTH 19 0
BBX 18 25 1 -1
BITMAP
001AA90000
01FFFFE000
07FFFFF800
1FFFFFFE00
2FFFFFFF40
3FFFAFFF80
3FF803FFC0
2FF002FFC0
069057FFC0
0007FFFF80
000BFFFF00
000BFFFC00
000BFFFE00
0007FFFF80
00016BFFD0
6A8002FFE0
FFD000FFE0
FFE001FFE0
FFF917FFD0
BFFFFFFFC0
3FFFFFFF80
1FFFFFFE00
07FFFFF800
00BFFF9000
0005540000
ENDCHAR
STARTCHAR four
ENCODING 52
SWIDTH 592 0
DWIDTH 19 0
BBX 18 24 0 0
BITMAP
0064001540
01FF40BFD0
02FFC0FFE0
03FFC0FFE0
07FF80FFE0
07FF40FFE0
0BFF00FFE0
0FFF00FFE0
1FFE00FFE0
1FFD00FFE0
2FFC00FFE0
3FFC00FFE0
7FFFFFFFE0
7FFFFFFFE0
BFFFFFFFE0
7FFFFFFFE0
3FFFFFFFE0
015555FFE0
000000FFE0
000000FFE0
000000FFE0
000000FFE0
000000FFD0
0000006F80
ENDCHAR
STARTCHAR five
ENCODING 53
SWIDTH 530 0
DWIDTH 17 0
BBX 16 25 0 -1
BITMAP
00695554
03FFFFFD
0BFFFFFE
0FFFFFFE
0FFFFFFE
1FFFFFFD
1FFD0000
1FFD0000
2FFE5000
2FFFFE40
3FFFFFD0
3FFFFFF4
3FFFFFFC
3FFFFFFE
0BF96FFF
01500BFF
00000BFF
0B800BFF
2FF56FFF
7FFFFFFE
7FFFFFFC
2FFFFFF4
0BFFFFD0
01BFFE40
00055000
ENDCHAR
STARTCHAR six
ENCODING 54
SWIDTH 560 0
DWIDTH 18 0
BBX 17 25 0 -1
BITMAP
0000015400
00006FFF00
0007FFFF40
002FFFFF40
00BFFFFF40
01FFFFFF00
03FFF95000
0BFFD00000
0FFF400000
1FFE000000
2FFEFE4000
3FFFFFF400
3FFFFFFD00
3FFFFFFF00
7FFFFFFF80
3FFE07FFC0
3FF802FFC0
3FF802FFC0
2FFD07FFC0
1FFFFFFF80
0FFFFFFF00
07FFFFFD00
01FFFFF400
006FFF9000
0001540000
ENDCHAR
STARTCHAR seven
ENCODING 55
SWIDTH 561 0
DWIDTH 18 0
BBX 18 24 0 0
BITMAP
0555555500
7FFFFFFFC0
7FFFFFFFD0
BFFFFFFFD0
7FFFFFFFD0
3FFFFFFFC0
05555BFF80
00000FFF40
00002FFE00
00007FFD00
0000FFF800
0002FFF000
0007FFD000
000FFF8000
001FFF0000
002FFE0000
007FFC0000
00BFF80000
00BFF00000
00FFF00000
00FFE00000
01FFD00000
00FFD00000
00BF800000
ENDCHAR
STARTCHAR eight
ENCODING 56
SWIDTH 582 0
DWIDTH 19 0
BBX 18 25 0 -1
BITMAP
0006FE4000
007FFFE000
02FFFFFD00
07FFFFFF00
0FFFFFFF80
1FFFABFFC0
1FFD02FFC0
1FFD02FFC0
1FFE07FFC0
0FFFFFFF80
07FFFFFF00
03FFFFFE00
0BFFFFFF40
1FFFFFFFC0
2FFE57FFD0
3FF801FFE0
7FF800FFE0
3FF800FFE0
3FFE06FFE0
2FFFFFFFD0
0FFFFFFF80
07FFFFFF00
01FFFFF800
002FFFD000
0001540000
ENDCHAR
STARTCHAR nine
ENCODING 57
SWIDTH 560 0
DWIDTH 18 0
BBX 17 24 0 0
BITMAP
001AA90000
00BFFFE000
03FFFFF800
0FFFFFFD00
1FFFFFFF00
3FFE5BFF40
3FF803FF80
7FF402FFC0
3FF803FFC0
3FFE6FFFC0
1FFFFFFFC0
0BFFFFFFC0
02FFFFFFC0
00BFFFFF80
000597FF40
00000FFF40
00002FFE00
0001BFFD00
06AFFFF800
1FFFFFF000
2FFFFFD000
2FFFFF4000
1FFFF80000
0BFE400000
ENDCHAR
STARTCHAR colon
ENCODING 58
SWIDTH 238 0
DWIDTH 8 0
BBX 7 16 0 0
BITMAP
2FF4
3FF8
7FF8
3FF8
3FF8
1AA0
0000
0000
0000
0000
1BE0
3FF8
7FF8
7FF8
3FF8
1FE0
ENDCHAR
STARTCHAR semicolon
ENCODING 59
SWIDTH 237 0
DWIDTH 8 0
BBX 7 21 0 -5
BITMAP
2FF4
3FF8
7FF8
3FF8
3FF8
1AA0
0000
0000
0000
0000
1FE0
3FF8
7FF8
7FF8
3FF8
1FF8
03F4
0BF0
1FD0
3F80
3D00
ENDCHAR
STARTCHAR less
ENCODING 60
SWIDTH 627 0
DWIDTH 20 0
BBX 20 22 0 0
BITMAP
00000001F4
0000001BFC
000000BFFD
000007FFFD
00006FFFF8
0002FFFFD0
001FFFFE00
01FFFFE400
0BFFFF4000
3FFFF80000
7FFF800000
7FFF900000
3FFFF80000
0BFFFF4000
01BFFFE400
001FFFFE00
0002FFFFD0
00006FFFF8
000007FFFE
000000BFFD
0000001BF8
00000001A0
ENDCHAR
STARTCHAR equal
ENCODING 61
SWIDTH 478 0
DWIDTH 15 0
BBX 15 12 0 1
BITMAP
2FFFFFE0
3FFFFFF4
3FFFFFF4
3FFFFFF4
1BFFFFE0
00000000
00000000
2FFFFFF0
3FFFFFF4
7FFFFFF4
3FFFFFF4
1AAAAA90
ENDCHAR
STARTCHAR greater
ENCODING 62
SWIDTH 627 0
DWIDTH 20 0
BBX 20 22 0 0
BITMAP
0F40000000
2FE4000000
7FFE000000
7FFFD00000
2FFFFD0000
07FFFF8000
00BFFFF400
001BFFFF40
0001FFFFE0
00002FFFFC
000002FFFD
000002FFFD
00002FFFFC
0001FFFFE0
001BFFFF40
00BFFFF400
07FFFF8000
2FFFF90000
7FFFD00000
7FFE000000
2FE4000000
0A40000000
ENDCHAR
STARTCHAR question
ENCODING 63
SWIDTH 512 0
DWIDTH 16 0
BBX 16 24 0 0
BITMAP
006FF900
02FFFF80
0BFFFFE0
2FFFFFF4
3FFFFFFC
7FF41FFD
7FE00BFE
1FD00BFE
01000FFD
00007FFC
0007FFF8
000FFFF0
001FFF80
001FFD00
001FF800
00069000
00000000
00000000
001BE400
002FFC00
003FFC00
003FFC00
002FFC00
001BF400
ENDCHAR
STARTCHAR at
ENCODING 64
SWIDTH 908 0
DWIDTH 29 0
BBX 29 26 0 -4
BITMAP
0000015540000000
00006FFFFA400000
0007FFFFFFE40000
002FFFFFFFFE0000
00BFFFAABFFF8000
02FFE00006FFE000
07FE0010046FF400
0FF802FE7F4BFC00
1FF01FFFFF43FD00
2FE07FFFFF01FE00
3FD0FFFFFF00FF00
3FC1FF42FF00FF00
3FC2FE01FE00BF40
7F82FE02FE00BF40
3FC2FF5BFD00BF00
3FC1FFFFFD00FF00
3FD0BFFFFD01FF00
2FE03FFFFC02FE00
1FF00BE7FC0BFC00
0FF80003FEBFF800
0BFE0002FFFFE000
02FFD000FFFF8000
00FFFFE42FF90000
003FFFFC01400000
000BFFFC00000000
00006FF800000000
ENDCHAR
STARTCHAR A
ENCODING 65
SWIDTH 765 0
DWIDTH 24 0
BBX 24 25 0 -1
BITMAP
000001400000
00000BF40000
00002FFC0000
00003FFD0000
00007FFF0000
0000FFFF4000
0001FFFFC000
0003FFFFD000
0007FFFFF000
000FFFFFF400
001FFFBFF800
003FFD3FFD00
007FFC1FFE00
00BFF40FFF40
01FFFAAFFF80
02FFFFFFFFD0
07FFFFFFFFE0
0BFFFFFFFFF4
1FFFFFFFFFF8
2FFE00003FFD
3FFC00002FFE
7FF800000FFF
7FF000000BFE
1BE0000003F8
014000000040
ENDCHAR
STARTCHAR B
ENCODING 66
SWIDTH 646 0
DWIDTH 21 0
BBX 19 24 1 0
BITMAP
1555554000
7FFFFFF800
BFFFFFFF00
BFFFFFFFC0
BFFFFFFFD0
BFFFFFFFF0
BFF555FFF0
BFF000BFF4
BFF000BFF0
BFF01AFFF0
BFF07FFFE0
BFF0BFFFC0
BFF0BFFFE0
BFF02FFFF4
BFF0007FF8
BFF0003FF8
BFF0003FFC
BFF0007FF8
BFFAAAFFF8
BFFFFFFFF4
BFFFFFFFE0
BFFFFFFFC0
BFFFFFFE00
2FFFFFE400
ENDCHAR
STARTCHAR C
ENCODING 67
SWIDTH 679 0
DWIDTH 22 0
BBX 21 25 0 -1
BITMAP
000006A90000
0001BFFFE400
001BFFFFFE00
007FFFFFFF80
01FFFFFFFFC0
07FFFFFFFF80
0BFFF406FF00
1FFF80002800
2FFE00000000
3FFC00000000
3FF800000000
3FF800000000
7FF400000000
3FF800000000
3FFC00000000
2FFD00000000
1FFF00000000
0FFFD000BD00
07FFFA5BFF00
02FFFFFFFF80
00BFFFFFFFC0
002FFFFFFF40
0007FFFFFD00
00006FFF9000
000001540000
ENDCHAR
STARTCHAR D
ENCODING 68
SWIDTH 704 0
DWIDTH 23 0
BBX 21 24 1 0
BITMAP
155555000000
7FFFFFE00000
BFFFFFFD0000
BFFFFFFF8000
BFFFFFFFE000
BFFFFFFFF800
BFF556FFFD00
BFF0007FFE00
BFF0001FFF00
BFF0000BFF40
BFF00007FF80
BFF00003FF80
BFF00003FF80
BFF00003FF80
BFF00007FF40
BFF0000FFF40
BFF0002FFF00
BFF001BFFD00
BFFAAFFFFC00
BFFFFFFFF000
BFFFFFFFD000
BFFFFFFF4000
BFFFFFF80000
2FFFFA400000
ENDCHAR
STARTCHAR E
ENCODING 69
SWIDTH 638 0
DWIDTH 20 0
BBX 19 24 1 0
BITMAP
1555555550
7FFFFFFFF4
BFFFFFFFF8
BFFFFFFFF8
BFFFFFFFF4
BFFFFFFFF0
BFF5555500
BFF0000000
BFF0000000
BFFAAA9000
BFFFFFF800
BFFFFFFC00
BFFFFFFC00
BFFFFFFC00
BFFFFFF400
BFF0000000
BFF0000000
BFF0000000
BFFAAAAA90
BFFFFFFFF4
BFFFFFFFF8
BFFFFFFFF8
BFFFFFFFF4
2FFFFFFFE0
ENDCHAR
STARTCHAR F
ENCODING 70
SWIDTH 637 0
DWIDTH 20 0
BBX 19 24 1 0
BITMAP
1555555550
7FFFFFFFF4
BFFFFFFFF8
BFFFFFFFF8
BFFFFFFFF4
BFFFFFFFF0
BFF5555540
BFF0000000
BFF0000000
BFFAAA9000
BFFFFFF800
BFFFFFFC00
BFFFFFFC00
BFFFFFFC00
BFFFFFF400
BFF0000000
BFF0000000
BFF0000000
BFF0000000
BFF0000000
BFF0000000
BFF0000000
BFE0000000
2F90000000
ENDCHAR
STARTCHAR G
ENCODING 71
SWIDTH 714 0
DWIDTH 23 0
BBX 21 25 1 -1
BITMAP
00006BA90000
000BFFFF9000
007FFFFFF800
02FFFFFFFE00
07FFFFFFFE00
1FFFFEFFFD00
2FFF900BF800
7FFD00005000
BFF800000000
FFF000000000
FFE007FFFF00
FFE00BFFFF40
FFE00BFFFF80
FFE00BFFFF80
FFF001ABFF80
BFF40003FF80
7FFD0003FF80
3FFF4003FF80
1FFFF96FFF80
0BFFFFFFFF80
02FFFFFFFF40
00BFFFFFFE00
001FFFFFF400
0002FFFE8000
000005500000
ENDCHAR
STARTCHAR H
ENCODING 72
SWIDTH 699 0
DWIDTH 22 0
BBX 20 24 1 0
BITMAP
1540000154
7FE00007FE
BFF0000BFF
BFF0000BFF
BFF0000BFF
BFF0000BFF
BFF0000BFF
BFF0000BFF
BFF0000BFF
BFF0000BFF
BFFFFFFFFF
BFFFFFFFFF
BFFFFFFFFF
BFFFFFFFFF
BFFAAAAFFF
BFF0000BFF
BFF0000BFF
BFF0000BFF
BFF0000BFF
BFF0000BFF
BFF0000BFF
BFF0000BFF
BFE00007FF
2F900002FD
ENDCHAR
STARTCHAR I
ENCODING 73
SWIDTH 257 0
DWIDTH 8 0
BBX 6 24 1 0
BITMAP
1540
7FE0
BFF0
BFF0
BFF0
BFF0
BFF0
BFF0
BFF0
BFF0
BFF0
BFF0
BFF0
BFF0
BFF0
BFF0
BFF0
BFF0
BFF0
BFF0
BFF0
BFF0
BFE0
2F90
ENDCHAR
STARTCHAR J
ENCODING 74
SWIDTH 549 0
DWIDTH 18 0
BBX 17 25 0 -1
BITMAP
0000005400
000003FF00
000007FF40
000007FF40
000007FF40
000007FF40
000007FF40
000007FF40
000007FF40
000007FF40
000007FF40
000007FF40
000007FF40
000007FF40
000007FF40
000007FF40
01400BFF40
1FD00FFF00
3FF9BFFE00
7FFFFFFD00
7FFFFFF800
2FFFFFF000
07FFFFC000
00BFFD0000
0005400000
ENDCHAR
STARTCHAR K
ENCODING 75
SWIDTH 639 0
DWIDTH 20 0
BBX 19 25 1 -1
BITMAP
1540000A40
7FE0003FD0
BFF000FFF0
BFF002FFF4
BFF00BFFE0
BFF02FFFC0
BFF07FFF40
BFF1FFFD00
BFF7FFF400
BFFFFFD000
BFFFFF4000
BFFFFD0000
BFFFF80000
BFFFFE0000
BFFFFF8000
BFFBFFE000
BFF2FFF800
BFF0BFFE00
BFF03FFF80
BFF00FFFD0
BFF007FFF0
BFF001FFF4
BFE0007FE0
2F90001F80
0000000500
ENDCHAR
STARTCHAR L
ENCODING 76
SWIDTH 587 0
DWIDTH 19 0
BBX 17 24 1 0
BITMAP
1540000000
7FE0000000
BFF0000000
BFF0000000
BFF0000000
BFF0000000
BFF0000000
BFF0000000
BFF0000000
BFF0000000
BFF0000000
BFF0000000
BFF0000000
BFF0000000
BFF0000000
BFF0000000
BFF0000000
BFF0000000
BFF0000000
BFFAAAAA40
BFFFFFFFC0
BFFFFFFFC0
BFFFFFFFC0
2FFFFFFF40
ENDCHAR
STARTCHAR M
ENCODING 77
SWIDTH 870 0
DWIDTH 28 0
BBX 26 24 1 0
BITMAP
15400000001500
7FE0000000BFD0
BFF4000002FFE0
BFFD000007FFE0
BFFF00001FFFE0
BFFF80003FFFE0
BFFFE000BFFFE0
BFFFF402FFFFE0
BFFFFC07FFFFE0
BFFFFE0FFFFFE0
BFFFFFAFFFFFE0
BFF7FFFFFDFFE0
BFF2FFFFF4FFE0
BFF0BFFFE0FFE0
BFF03FFFC0FFE0
BFF01FFF40FFE0
BFF00BFD00FFE0
BFF002F400FFE0
BFF0000000FFE0
BFF0000000FFE0
BFF0000000FFE0
BFF0000000FFE0
BFE0000000FFD0
2F900000006F80
ENDCHAR
STARTCHAR N
ENCODING 78
SWIDTH 720 0
DWIDTH 23 0
BBX 21 24 1 0
BITMAP
154000005500
7FE00002FF40
BFF40002FF80
BFFD0003FF80
BFFF0003FF80
BFFF8003FF80
BFFFD003FF80
BFFFF403FF80
BFFFFC03FF80
BFFFFE03FF80
BFFFFF43FF80
BFF7FFD3FF80
BFF2FFF3FF80
BFF0FFFBFF80
BFF07FFFFF80
BFF01FFFFF80
BFF00BFFFF80
BFF003FFFF80
BFF001FFFF80
BFF0007FFF80
BFF0002FFF80
BFF0000FFF80
BFE00007FF80
2F900001FE00
ENDCHAR
STARTCHAR O
ENCODING 79
SWIDTH 775 0
DWIDTH 25 0
BBX 24 25 0 -1
BITMAP
00001AA90000
0002FFFFD000
001FFFFFFD00
00BFFFFFFF40
01FFFFFFFFD0
07FFFFFFFFF0
0BFFE407FFF8
1FFF8000BFFC
2FFE00002FFD
3FFC00001FFE
3FF800000FFF
3FF800000BFF
7FF400000BFF
3FF800000BFF
3FF800000FFE
2FFD00001FFE
2FFF00003FFD
0FFF8001FFFC
0BFFF95BFFF4
03FFFFFFFFE0
00FFFFFFFFC0
007FFFFFFE00
000BFFFFF800
0001BFFF9000
000005540000
ENDCHAR
STARTCHAR P
ENCODING 80
SWIDTH 632 0
DWIDTH 20 0
BBX 19 24 1 0
BITMAP
1555550000
7FFFFFE000
BFFFFFFD00
BFFFFFFF40
BFFFFFFFC0
BFFFFFFFE0
BFF556FFF0
BFF000BFF4
BFF0007FF4
BFF0007FF4
BFF000BFF4
BFF006FFF0
BFFFFFFFE0
BFFFFFFFD0
BFFFFFFF40
BFFFFFFD00
BFFFFFE000
BFFAA50000
BFF0000000
BFF0000000
BFF0000000
BFF0000000
BFE0000000
2F90000000
ENDCHAR
STARTCHAR Q
ENCODING 81
SWIDTH 830 0
DWIDTH 27 0
BBX 26 25 0 -1
BITMAP
00001AA9000000
0002FFFFD00000
001FFFFFFD0000
00BFFFFFFF4000
01FFFFFFFFD000
07FFFFFFFFF000
0BFFE407FFF800
1FFF8000BFFC00
2FFE00002FFD00
3FFC00001FFE00
3FF800000FFF00
3FF800000BFF00
7FF400000BFF00
3FF800000BFF00
3FF800000FFE00
2FFD00001FFE00
2FFF00003FFD00
0FFF8001FFFC00
0BFFF95BFFFF40
03FFFFFFFFFFD0
00FFFFFFFFFFF0
007FFFFFFFFFF0
000BFFFFF9FFD0
0001BFFF902F80
00000554000100
ENDCHAR
STARTCHAR R
ENCODING 82
SWIDTH 631 0
DWIDTH 20 0
BBX 19 24 1 0
BITMAP
1555550000
7FFFFFE000
BFFFFFFD00
BFFFFFFF40
BFFFFFFFC0
BFFFFFFFE0
BFF556FFF0
BFF000BFF4
BFF0007FF4
BFF0007FF4
BFF000BFF4
BFF006FFF0
BFFFFFFFE0
BFFFFFFFD0
BFFFFFFF40
BFFFFFFF40
BFFFFFFF80
BFFAABFFC0
BFF002FFE0
BFF001FFF0
BFF000BFF4
BFF0007FF8
BFE0003FF4
2F90001F90
ENDCHAR
STARTCHAR S
ENCODING 83
SWIDTH 583 0
DWIDTH 19 0
BBX 17 25 1 -1
BITMAP
005AA90000
02FFFFD000
0BFFFFF800
2FFFFFFD00
7FFFFFFD00
BFFE6FF800
BFF007F000
BFF0000000
BFF4000000
7FFF900000
3FFFFF9000
1FFFFFF800
07FFFFFE00
007FFFFF40
0006BFFF80
00000BFF80
2F4003FF80
BFD003FF80
FFF80BFF80
FFFFFFFF40
7FFFFFFE00
2FFFFFFC00
0BFFFFE000
00BFFE4000
0001500000
ENDCHAR
STARTCHAR T
ENCODING 84
SWIDTH 731 0
DWIDTH 23 0
BBX 23 24 0 0
BITMAP
155555555550
7FFFFFFFFFF8
7FFFFFFFFFFC
7FFFFFFFFFFC
7FFFFFFFFFF8
00007FF80000
00003FF40000
00003FF40000
00003FF40000
00003FF40000
00003FF40000
00003FF40000
00003FF40000
00003FF40000
00003FF40000
00003FF40000
00003FF40000
00003FF40000
00003FF40000
00003FF40000
00003FF40000
00003FF40000
00003FF40000
00001FE00000
ENDCHAR
STARTCHAR U
ENCODING 85
SWIDTH 726 0
DWIDTH 23 0
BBX 21 25 1 -1
BITMAP
154000005500
7FE00001FF80
BFF00002FFC0
BFF00002FFC0
BFF00002FFC0
BFF00002FFC0
BFF00002FFC0
BFF00002FFC0
BFF00002FFC0
BFF00002FFC0
BFF00002FFC0
BFF00002FFC0
BFF00002FFC0
BFF00002FFC0
BFF00003FFC0
7FF40003FF80
7FFC000BFF40
3FFE001FFF00
1FFF95BFFE00
0FFFFFFFFC00
07FFFFFFF400
01FFFFFFE000
007FFFFF4000
000BFFF80000
000055400000
ENDCHAR
STARTCHAR V
ENCODING 86
SWIDTH 783 0
DWIDTH 25 0
BBX 25 24 0 0
BITMAP
0280000000A400
2FE0000002FE00
7FF4000007FF40
7FF800000BFF40
3FFC00000FFF00
2FFE00002FFE00
0FFF00003FFC00
0BFF80007FF800
03FFC000FFF000
02FFD001FFE000
00FFF003FFC000
00BFF407FF8000
003FF80BFF0000
002FFD1FFE0000
000FFE2FFC0000
000BFF7FF80000
0003FFFFF40000
0002FFFFE00000
0000FFFFD00000
0000BFFF800000
00003FFF400000
00002FFE000000
00000FFD000000
000006E4000000
ENDCHAR
STARTCHAR W
ENCODING 87
SWIDTH 999 0
DWIDTH 32 0
BBX 32 24 0 0
BITMAP
0680000140000290
2FE0001FF4000BF8
7FF4002FF8001FFD
7FF8003FFC002FFD
3FFC007FFD003FFC
2FFD00BFFE007FF8
1FFE00FFFF00BFF4
0FFF01FFFF40FFF0
0BFF02FFFF81FFE0
07FF43FFFFC2FFD0
03FF87FFFFD3FFC0
02FFCBFFFFE7FF80
01FFEFFEBFFBFF40
00FFFFFD7FFFFF00
00BFFFFC3FFFFE00
007FFFF82FFFFD00
003FFFF41FFFFC00
002FFFF00FFFF800
001FFFE00BFFF400
000FFFD007FFF000
000BFFC003FFD000
0007FF8002FFC000
0002FF0001FF8000
0000B900006E0000
ENDCHAR
STARTCHAR X
ENCODING 88
SWIDTH 741 0
DWIDTH 24 0
BBX 23 25 0 -1
BITMAP
0BC0000007D0
2FF000001FF4
7FFC00007FFC
7FFE0000FFFC
2FFF8003FFF8
0FFFE00BFFE0
07FFF42FFF80
01FFFDBFFF00
007FFFFFFC00
001FFFFFF400
0007FFFFD000
0002FFFF4000
0001FFFF0000
0007FFFFC000
001FFFFFE000
003FFFFFF800
00FFFEBFFE00
02FFF82FFF80
0BFFE00FFFE0
2FFF8007FFF4
7FFF0001FFFC
7FFD00007FFC
3FF400002FF8
0BD000000BE0
010000000140
ENDCHAR
STARTCHAR Y
ENCODING 89
SWIDTH 686 0
DWIDTH 22 0
BBX 22 24 0 0
BITMAP
068000002900
2FE00000FF80
7FF40002FFD0
7FFC0007FFD0
3FFE000BFFC0
1FFF401FFF40
0BFFC03FFE00
03FFE0BFFC00
01FFF5FFF400
00BFFBFFE000
003FFFFFC000
001FFFFF4000
000BFFFE0000
0003FFFC0000
0001FFF40000
0000FFF00000
0000FFE00000
0000FFE00000
0000FFE00000
0000FFE00000
0000FFE00000
0000FFE00000
0000BFE00000
00007FD00000
ENDCHAR
STARTCHAR Z
ENCODING 90
SWIDTH 643 0
DWIDTH 21 0
BBX 20 24 0 0
BITMAP
0555555550
3FFFFFFFF8
3FFFFFFFFC
7FFFFFFFFD
3FFFFFFFFC
2FFFFFFFF4
000007FFE0
00000FFFC0
00002FFF40
00007FFE00
0000FFF800
0002FFF000
000BFFD000
001FFF8000
003FFF0000
00BFFD0000
01FFF40000
07FFE00000
0BFFE55554
2FFFFFFFFD
3FFFFFFFFE
3FFFFFFFFE
3FFFFFFFFE
1BFFFFFFFD
ENDCHAR
STARTCHAR bracketleft
ENCODING 91
SWIDTH 348 0
DWIDTH 11 0
BBX 10 33 1 -8
BITMAP
2AAA80
BFFFE0
BFFFE0
BFFFE0
BFFF90
BFD000
BFD000
BFD000
BFD000
BFD000
BFD000
BFD000
BFD000
BFD000
BFD000
BFD000
BFD000
BFD000
BFD000
BFD000
BFD000
BFD000
BFD000
BFD000
BFD000
BFD000
BFD000
BFE540
BFFFD0
BFFFE0
BFFFE0
7FFFD0
055500
ENDCHAR
STARTCHAR backslash
ENCODING 92
SWIDTH 528 0
DWIDTH 17 0
BBX 17 27 0 -2
BITMAP
0BC0000000
7FE0000000
7FF4000000
7FF8000000
2FFD000000
1FFE000000
0BFF000000
07FF800000
02FFC00000
01FFE00000
00FFF00000
007FF80000
003FFC0000
001FFD0000
000FFF0000
0007FF4000
0003FFC000
0001FFD000
0000FFF000
0000BFF400
00003FF800
00002FFD00
00000FFE00
00000BFF40
000003FF40
000002FE00
000000A400
ENDCHAR
STARTCHAR bracketright
ENCODING 93
SWIDTH 348 0
DWIDTH 11 0
BBX 10 33 0 -8
BITMAP
2AAA80
7FFFE0
BFFFE0
7FFFF0
2FFFF0
007FF0
007FF0
007FF0
007FF0
007FF0
007FF0
007FF0
007FF0
007FF0
007FF0
007FF0
007FF0
007FF0
007FF0
007FF0
007FF0
007FF0
007FF0
007FF0
007FF0
007FF0
007FF0
15BFF0
7FFFF0
7FFFF0
7FFFE0
7FFFD0
055500
ENDCHAR
STARTCHAR asciicircum
ENCODING 94
SWIDTH 526 0
DWIDTH 17 0
BBX 15 10 1 8
BITMAP
00010000
001FD000
007FF400
01FFFC00
07FFFF00
1FFFFFC0
7FFDFFF0
BFF07FF4
7FC01FF0
1F0007D0
ENDCHAR
STARTCHAR underscore
ENCODING 95
SWIDTH 826 0
DWIDTH 26 0
BBX 26 5 0 -8
BITMAP
7FFFFFFFFFFFE0
7FFFFFFFFFFFF0
7FFFFFFFFFFFF0
7FFFFFFFFFFFE0
05555555555540
ENDCHAR
STARTCHAR grave
ENCODING 96
SWIDTH 482 0
DWIDTH 15 0
BBX 10 7 3 18
BITMAP
290000
7FE400
BFFF80
FFFFE0
7FFFD0
06FFC0
001640
ENDCHAR
STARTCHAR a
ENCODING 97
SWIDTH 596 0
DWIDTH 19 0
BBX 18 17 0 0
BITMAP
0006A42A80
007FFEBFE0
02FFFFFFE0
07FFFFFFE0
0FFFFFFFE0
2FFFEFFFE0
3FFD03FFE0
3FF801FFE0
7FF400FFE0
3FF801FFE0
3FFD02FFE0
2FFFAFFFE0
1FFFFFFFE0
0BFFFFFFE0
02FFFFFFE0
00BFFFBFE0
001BE82F90
ENDCHAR
STARTCHAR b
ENCODING 98
SWIDTH 592 0
DWIDTH 19 0
BBX 17 25 1 0
BITMAP
2A80000000
BFE0000000
BFF0000000
BFF0000000
BFF0000000
BFF0000000
BFF0000000
BFF0000000
BFF1A90000
BFFBFFD000
BFFFFFF800
BFFFFFFD00
BFFFFFFF00
BFFFBFFF80
BFF807FFC0
BFF402FFC0
BFF002FFC0
BFF002FFC0
BFF807FFC0
BFFFAFFF80
BFFFFFFF00
BFFFFFFD00
BFFFFFF800
BFFFFFE000
2F92BE4000
ENDCHAR
STARTCHAR c
ENCODING 99
SWIDTH 517 0
DWIDTH 17 0
BBX 16 17 0 0
BITMAP
0006FE40
007FFFF4
02FFFFFD
0BFFFFFE
1FFFFFFD
2FFFEFF8
3FFE01A0
3FF80000
7FF80000
3FF80000
3FFD0190
2FFFABF8
1FFFFFFD
0BFFFFFE
02FFFFFD
00BFFFF8
000BFF90
ENDCHAR
STARTCHAR d
ENCODING 100
SWIDTH 598 0
DWIDTH 19 0
BBX 17 25 1 0
BITMAP
000000AA00
000002FF80
000002FFC0
000002FFC0
000002FFC0
000002FFC0
000002FFC0
000002FFC0
001A92FFC0
01FFFFFFC0
07FFFFFFC0
1FFFFFFFC0
3FFFFFFFC0
7FFFBFFFC0
BFF80BFFC0
FFE003FFC0
FFE003FFC0
FFE003FFC0
BFF40BFFC0
BFFEBFFFC0
3FFFFFFFC0
1FFFFFFFC0
0BFFFFFFC0
01FFFEFF80
002BE0BE40
ENDCHAR
STARTCHAR e
ENCODING 101
SWIDTH 573 0
DWIDTH 18 0
BBX 18 19 0 -1
BITMAP
0000100000
001BFFE000
00BFFFFD00
02FFFFFF00
0BFFFFFF80
1FFFFFFFD0
2FFF41FFD0
3FFC00FFE0
3FFEAAFFD0
7FFFFFFFD0
3FFFFFFF40
3FFD555400
2FFD000400
1FFFAABF00
0BFFFFFF40
03FFFFFF80
01FFFFFF40
001FFFFD00
0000554000
ENDCHAR
STARTCHAR f
ENCODING 102
SWIDTH 450 0
DWIDTH 14 0
BBX 14 25 0 0
BITMAP
0001AA40
000FFFC0
003FFFC0
00BFFFC0
01FFFFC0
01FFFA40
02FFC000
02FFC000
1BFFEA80
7FFFFFE0
7FFFFFF0
7FFFFFF0
7FFFFFE0
2BFFEA80
02FFC000
02FFC000
02FFC000
02FFC000
02FFC000
02FFC000
02FFC000
02FFC000
02FFC000
01FFC000
00BF4000
ENDCHAR
STARTCHAR g
ENCODING 103
SWIDTH 585 0
DWIDTH 19 0
BBX 18 25 0 -8
BITMAP
001AA46F80
00BFFEFFD0
02FFFFFFD0
0BFFFFFFD0
1FFFFFFFD0
2FFFAFFFD0
3FFC03FFD0
3FF401FFD0
7FF401FFD0
3FF802FFD0
3FFD07FFD0
2FFFFFFFD0
0FFFFFFFD0
07FFFFFFD0
01FFFFFFD0
006FFDFFD0
000550FFD0
005001FFD0
02F907FFC0
07FFFFFF80
0BFFFFFF40
07FFFFFD00
01FFFFF400
002FFF8000
0000500000
ENDCHAR
STARTCHAR h
ENCODING 104
SWIDTH 605 0
DWIDTH 19 0
BBX 17 25 1 0
BITMAP
2A80000000
BFE0000000
BFF0000000
BFF0000000
BFF0000000
BFF0000000
BFF0000000
BFF0000000
BFF1AA4000
BFF7FFE000
BFFFFFF800
BFFFFFFE00
BFFFFFFF00
BFFFBFFF80
BFF807FFC0
BFF002FFC0
BFF002FFC0
BFF002FFC0
BFF002FFC0
BFF002FFC0
BFF002FFC0
BFF002FFC0
BFF002FFC0
BFE001FFC0
2F9000BF40
ENDCHAR
STARTCHAR i
ENCODING 105
SWIDTH 255 0
DWIDTH 8 0
BBX 6 25 1 0
BITMAP
2A80
BFE0
BFF0
BFF0
BFE0
2B80
0000
0000
2A80
BFE0
BFF0
BFF0
BFF0
BFF0
BFF0
BFF0
BFF0
BFF0
BFF0
BFF0
BFF0
BFF0
BFF0
BFE0
2F90
ENDCHAR
STARTCHAR j
ENCODING 106
SWIDTH 252 0
DWIDTH 8 0
BBX 12 33 -5 -8
BITMAP
0001A8
000BFE
000BFE
000BFE
000BFE
0002A8
000000
000000
0002F8
000BFE
000BFE
000BFE
000BFE
000BFE
000BFE
000BFE
000BFE
000BFE
000BFE
000BFE
000BFE
000BFE
000BFE
000BFE
000BFE
000FFE
017FFD
2FFFFC
3FFFF4
7FFFE0
3FFF80
2FF900
050000
ENDCHAR
STARTCHAR k
ENCODING 107
SWIDTH 536 0
DWIDTH 17 0
BBX 16 25 1 0
BITMAP
2A800000
BFE00000
BFF00000
BFF00000
BFF00000
BFF00000
BFF00000
BFF00000
BFF00000
BFF01B80
BFF07FE0
BFF1FFF4
BFF7FFF4
BFFFFFE0
BFFFFF80
BFFFFD00
BFFFF800
BFFFFD00
BFFFFF80
BFFFFFE0
BFF7FFF8
BFF1FFFE
BFF07FFD
BFE01FFC
2F9002F0
ENDCHAR
STARTCHAR l
ENCODING 108
SWIDTH 327 0
DWIDTH 10 0
BBX 9 25 1 0
BITMAP
2A8000
BFE000
BFF000
BFF000
BFF000
BFF000
BFF000
BFF000
BFF000
BFF000
BFF000
BFF000
BFF000
BFF000
BFF000
BFF000
BFF000
BFF000
BFF000
BFF500
BFFF80
7FFFC0
3FFFC0
2FFFC0
06FF40
ENDCHAR
STARTCHAR m
ENCODING 109
SWIDTH 851 0
DWIDTH 27 0
BBX 25 17 1 0
BITMAP
2A81B9002B9000
BFE7FFD1FFF800
BFFFFFF7FFFD00
BFFFFFFFFFFF00
BFFFFFFFFFFF40
BFFFFFFFEFFF80
BFF42FFF07FF80
BFF01FFE02FFC0
BFF01FFD02FFC0
BFF01FFD02FFC0
BFF01FFD02FFC0
BFF01FFD02FFC0
BFF01FFD02FFC0
BFF01FFD02FFC0
BFF01FFD02FFC0
BFE00FFD02FF80
2F9007F800BF40
ENDCHAR
STARTCHAR n
ENCODING 110
SWIDTH 606 0
DWIDTH 19 0
BBX 17 17 1 0
BITMAP
2B91AA4000
BFEBFFE000
BFFFFFF800
BFFFFFFE00
BFFFFFFF40
BFFFBFFF80
BFF807FFC0
BFF002FFC0
BFF002FFC0
BFF002FFC0
BFF002FFC0
BFF002FFC0
BFF002FFC0
BFF002FFC0
BFF001FFC0
BFE001FFC0
2F9000BF40
ENDCHAR
STARTCHAR o
ENCODING 111
SWIDTH 600 0
DWIDTH 19 0
BBX 19 19 0 -1
BITMAP
0000140000
001BFF9000
00BFFFF800
02FFFFFF00
0BFFFFFF80
1FFFFFFFD0
2FFF9BFFF0
3FFD00FFF0
3FF8007FF4
7FF8007FF4
3FF8007FF4
3FFD00FFF4
2FFF9BFFF0
1FFFFFFFD0
0BFFFFFF80
02FFFFFF00
00BFFFF800
001BFF9000
0000540000
ENDCHAR
STARTCHAR p
ENCODING 112
SWIDTH 582 0
DWIDTH 19 0
BBX 17 25 1 -8
BITMAP
2E81A90000
BFEFFFD000
BFFFFFF400
BFFFFFFD00
BFFFFFFE00
BFFFBFFF40
BFF80BFF80
BFF003FF80
BFF002FF80
BFF403FF80
BFF80BFF80
BFFFFFFF40
BFFFFFFE00
BFFFFFFC00
BFFFFFF000
BFEBFF8000
BFE1640000
BFE0000000
BFE0000000
BFE0000000
BFE0000000
BFE0000000
BFE0000000
7FD0000000
0500000000
ENDCHAR
STARTCHAR q
ENCODING 113
SWIDTH 582 0
DWIDTH 19 0
BBX 18 25 0 -8
BITMAP
001AA46E40
00BFFEFFD0
02FFFFFFD0
0BFFFFFFD0
1FFFFFFFD0
2FFFAFFFD0
3FFD07FFD0
3FF401FFD0
7FF401FFD0
3FF802FFD0
3FFD07FFD0
2FFFFFFFD0
0FFFFFFFD0
07FFFFFFD0
01FFFFFFD0
007FFEFFD0
000590FFD0
000000FFD0
000000FFD0
000000FFD0
000000FFD0
000000FFD0
000000FFD0
000000BFC0
0000001500
ENDCHAR
STARTCHAR r
ENCODING 114
SWIDTH 457 0
DWIDTH 15 0
BBX 13 17 1 0
BITMAP
2B91FE40
BFEBFFC0
BFFFFFC0
BFFFFFC0
BFFFFF80
BFFE6E00
BFF40000
BFF00000
BFF00000
BFF00000
BFF00000
BFF00000
BFF00000
BFF00000
BFF00000
BFE00000
2F900000
ENDCHAR
STARTCHAR s
ENCODING 115
SWIDTH 489 0
DWIDTH 16 0
BBX 14 19 1 -1
BITMAP
00010000
02FFF900
1FFFFF80
3FFFFFC0
7FFFFF80
BFE56F00
BFE00000
7FFE9000
3FFFFE00
2FFFFFC0
0BFFFFD0
00BFFFE0
2901BFE0
7FD5BFE0
FFFFFFE0
FFFFFFD0
BFFFFF40
0BFFF900
00150000
ENDCHAR
STARTCHAR t
ENCODING 116
SWIDTH 449 0
DWIDTH 14 0
BBX 14 23 0 0
BITMAP
00690000
01FF8000
02FFC000
02FFC000
02FFC000
02FFC000
2BFFEA80
7FFFFFE0
7FFFFFF0
7FFFFFF0
7FFFFFE0
2BFFEA80
02FFC000
02FFC000
02FFC000
02FFC000
02FFC000
02FFE500
01FFFF80
00FFFFC0
00BFFFC0
002FFFC0
0006FF40
ENDCHAR
STARTCHAR u
ENCODING 117
SWIDTH 606 0
DWIDTH 19 0
BBX 17 17 1 0
BITMAP
2F8000AE40
BFE001FFC0
BFF001FFC0
BFF001FFC0
BFF001FFC0
BFF001FFC0
BFF001FFC0
BFF001FFC0
BFF002FFC0
BFF002FFC0
BFF807FFC0
7FFFAFFFC0
3FFFFFFFC0
1FFFFFFFC0
0BFFFFFFC0
01FFFDFFC0
002BE0BF40
ENDCHAR
STARTCHAR v
ENCODING 118
SWIDTH 638 0
DWIDTH 20 0
BBX 20 17 0 0
BITMAP
0BD00002F4
3FF0000BFD
7FF8000FFF
7FFC002FFE
2FFE003FFD
1FFF00BFF8
0BFF81FFF0
03FFC2FFD0
01FFE7FFC0
00FFFBFF40
007FFFFE00
002FFFFC00
000FFFF800
000BFFF000
0003FFD000
0001FF8000
0000BE0000
ENDCHAR
STARTCHAR w
ENCODING 119
SWIDTH 793 0
DWIDTH 25 0
BBX 25 17 0 0
BITMAP
1BD002E400BD00
7FF00BFC02FF80
7FF40FFE03FFC0
7FF82FFF07FF80
3FFC3FFF4BFF40
1FFD7FFF8FFF00
0FFEBFFFDFFD00
0BFFFFFFFFFC00
07FFFFFFFFF800
02FFFFFFFFF400
01FFFFBFFFE000
00FFFF2FFFD000
00BFFE1FFFC000
003FFD0FFF8000
002FFC0BFF0000
001FF803FE0000
0007E001F80000
ENDCHAR
STARTCHAR x
ENCODING 120
SWIDTH 567 0
DWIDTH 18 0
BBX 18 17 0 0
BITMAP
0B80002E00
2FF000BFC0
7FFC02FFE0
7FFF0BFFE0
2FFFEFFFC0
0BFFFFFF00
02FFFFFC00
00BFFFF000
003FFFD000
00BFFFE000
02FFFFF800
0BFFFFFE00
2FFFEFFF80
7FFF0BFFD0
7FFC03FFE0
2FF000FFC0
0BC0002E00
ENDCHAR
STARTCHAR y
ENCODING 121
SWIDTH 604 0
DWIDTH 19 0
BBX 19 25 0 -8
BITMAP
0BD0000FD0
3FF0002FF8
7FF8003FF8
3FFD00BFF8
2FFE00FFF0
0FFF41FFE0
07FFC3FFD0
02FFE7FF80
01FFFFFF40
00BFFFFF00
003FFFFD00
001FFFFC00
000FFFF800
0007FFF000
0002FFE000
0003FFD000
0007FF8000
000BFF4000
001FFF0000
002FFD0000
003FFC0000
007FF80000
007FF00000
002FE00000
0001400000
ENDCHAR
STARTCHAR z
ENCODING 122
SWIDTH 586 0
DWIDTH 19 0
BBX 17 17 1 0
BITMAP
2BFFFFF900
7FFFFFFF00
7FFFFFFF40
7FFFFFFF40
7FFFFFFF00
1AAAFFFD00
0003FFF000
001FFF8000
007FFE0000
01FFF80000
0BFFE00000
2FFFEAA900
BFFFFFFF80
FFFFFFFFC0
FFFFFFFFC0
BFFFFFFF80
2FFFFFFF40
ENDCHAR
STARTCHAR braceleft
ENCODING 123
SWIDTH 381 0
DWIDTH 12 0
BBX 12 33 0 -8
BITMAP
0001A8
000BFE
002FFE
007FFE
00BFF8
00BFC0
00FF80
00FF80
00FF80
00FF80
00FF80
00FF80
00FF80
01FF40
3FFF00
7FFE00
7FFD00
7FFF00
1BFF40
00FF80
00FF80
00BF80
00BF80
00BF80
00BF80
00FF80
00FF80
00BFD4
00BFFD
003FFE
001FFE
0007FD
000010
ENDCHAR
STARTCHAR bar
ENCODING 124
SWIDTH 217 0
DWIDTH 7 0
BBX 5 33 1 -8
BITMAP
2A00
BF40
BF80
BF80
BF80
BF80
BF80
BF80
BF80
BF80
BF80
BF80
BF80
BF80
BF80
BF80
BF80
BF80
BF80
BF80
BF80
BF80
BF80
BF80
BF80
BF80
BF80
BF80
BF80
BF80
BF80
7F40
1500
ENDCHAR
STARTCHAR braceright
ENCODING 125
SWIDTH 381 0
DWIDTH 12 0
BBX 12 33 0 -8
BITMAP
2A4000
7FF400
BFFC00
7FFE00
2FFF00
02FF00
02FF00
02FF00
02FF00
02FF00
02FF00
02FF00
02FF00
01FF80
00FFFD
007FFE
003FFE
00BFFE
00FFE8
01FF40
02FF00
02FF00
02FF00
02FF00
02FF00
02FF00
02FF00
07FF00
7FFE00
7FFD00
7FF800
7FD000
040000
ENDCHAR
STARTCHAR asciitilde
ENCODING 126
SWIDTH 651 0
DWIDTH 21 0
BBX 18 7 1 5
BITMAP
01BF902E00
0BFFF9BFC0
1FFFFFFFD0
3FFFFFFFC0
7FFFFFFF40
2FD1FFFD00
0B802BA000
ENDCHAR
STARTCHAR exclamdown
ENCODING 161
SWIDTH 268 0
DWIDTH 9 0
BBX 7 25 1 -8
BITMAP
0540
7FE0
BFF4
BFF4
BFF4
7FF0
1A80
0000
0000
2A90
7FF0
BFF0
BFF0
BFF0
BFF0
BFF0
BFF0
BFF0
BFF0
BFF0
BFF0
BFF0
BFF0
7FE0
0540
ENDCHAR
STARTCHAR cent
ENCODING 162
SWIDTH 434 0
DWIDTH 14 0
BBX 13 25 0 -3
BITMAP
00014000
000BD000
000FE000
000FE000
000FE000
000FE000
006FF900
02FFFF40
0BFFFFC0
1FFFFF80
2FFEBF40
3FF00500
7FE00000
3FE00000
3FF41900
2FFFFF40
1FFFFFC0
07FFFFC0
01FFFF40
001FF400
000FE000
000FE000
000FE000
000FE000
00068000
ENDCHAR
STARTCHAR sterling
ENCODING 163
SWIDTH 675 0
DWIDTH 22 0
BBX 21 24 0 0
BITMAP
000005940000
0001BFFF9000
000BFFFFF800
002FFFFFFF00
007FFFFFFF40
00BFFEAFFF40
01FFE001FE00
01FFC0006400
02FF80000000
02FF80000000
1BFFEA800000
7FFFFFE00000
BFFFFFF00000
7FFFFFE00000
2AFFFA900000
007FE0000000
007FF0000000
00BFE0000000
00FFE5555400
02FFFFFFFF80
07FFFFFFFFC0
07FFFFFFFFC0
07FFFFFFFFC0
01FFFFFFFF40
ENDCHAR
STARTCHAR currency
ENCODING 164
SWIDTH 677 0
DWIDTH 22 0
BBX 20 25 1 0
BITMAP
1900000060
BF000001FD
FF800003FE
BFFAAAAFFE
7FFFFFFFFC
1FFFFFFFF4
0BFFFFFFD0
1FFFFFFFF0
2FFD41BFF4
3FF0001FF8
7FE0000FFC
7FD0000BFC
BFD0000BFD
7FD0000BFC
7FE0000BFC
7FF0001FFC
3FF9007FF8
1FFFEFFFF0
0BFFFFFFE0
1FFFFFFFF0
3FFFFFFFF8
BFFEAAFFFD
FF800007FE
FF000001FD
29000000A4
ENDCHAR
STARTCHAR yen
ENCODING 165
SWIDTH 677 0
DWIDTH 22 0
BBX 21 24 0 0
BITMAP
014000001400
1FE00000FF40
7FF40002FFC0
7FFC0007FFC0
3FFE000BFF80
1FFF401FFF00
0BFF803FFD00
03FFD0BFF800
01FFF1FFF000
00BFFBFFD000
003FFFFF8000
001FFFFF0000
006FFFFE9000
01FFFFFFF000
02FFFFFFF400
00BFFFFFE000
0000FFE00000
0000FFE00000
00FFFFFFE000
02FFFFFFF400
01FFFFFFF000
0055FFE55000
0000BFD00000
00006F800000
ENDCHAR
STARTCHAR brokenbar
ENCODING 166
SWIDTH 215 0
DWIDTH 7 0
BBX 5 32 1 -7
BITMAP
2A00
BF40
BF80
BF80
BF80
BF80
BF80
BF80
BF80
BF80
BF80
BF80
BF80
BF40
2A00
0000
0000
1500
7F40
BF80
BF80
BF80
BF80
BF80
BF80
BF80
BF80
BF80
BF80
BF80
BF80
7F40
ENDCHAR
STARTCHAR section
ENCODING 167
SWIDTH 560 0
DWIDTH 18 0
BBX 16 33 1 -8
BITMAP
00169400
02FFFF80
0BFFFFE0
2FFFFFF8
7FFFFFF8
BFF9BFF0
BFE00BD0
BFE00000
BFF40000
7FFF9400
3FFFFF80
1FFFFFF4
3FFFFFFD
7FFFFFFE
BFF5BFFF
BFE00BFF
BFE007FF
BFF90BFF
7FFFFFFE
2FFFFFFD
0BFFFFFC
01FFFFFD
001BFFFE
00002FFF
1A0007FF
7F8007FF
FFE40FFF
FFFFFFFE
BFFFFFFC
2FFFFFF4
0BFFFFD0
01BFFD00
00014000
ENDCHAR
STARTCHAR dieresis
ENCODING 168
SWIDTH 489 0
DWIDTH 16 0
BBX 15 6 1 19
BITMAP
2A801A90
7FE03FF4
BFF03FF8
BFF03FF8
BFF03FF4
2F901FE0
ENDCHAR
STARTCHAR copyright
ENCODING 169
SWIDTH 711 0
DWIDTH 23 0
BBX 22 21 0 3
BITMAP
0001AFE90000
006FFFFFE000
01FFFEFFFD00
07F90001FF00
0FE01A902F80
1F81FFFD0FC0
2F47FFFE07D0
3F0FFEFD07E0
3E1FE01403E0
3E2FC00003F0
7E2F800003F0
3E2FC00003F0
3E1FD01403E0
3F0FFABD03E0
2F47FFFE07D0
1F81FFFD0FC0
0FD01A902F80
07F90001FF00
01FFFEFFFD00
006FFFFFE000
0005AFE90000
ENDCHAR
STARTCHAR ordfeminine
ENCODING 170
SWIDTH 445 0
DWIDTH 14 0
BBX 13 13 0 10
BITMAP
006A1A40
03FFFFC0
0FFFFFC0
2FFFFFC0
3FE5FFC0
3FC07FC0
7FC07FC0
3FD0BFC0
2FFFFFC0
1FFFFFC0
07FFFFC0
01FF6F80
00040400
ENDCHAR
STARTCHAR guillemotleft
ENCODING 171
SWIDTH 668 0
DWIDTH 21 0
BBX 21 17 0 0
BITMAP
000190001800
0007F400BF00
001FFC02FF80
007FFD0BFF80
01FFF42FFF00
07FFD0BFFC00
1FFF42FFF000
3FFD0BFFC000
7FF80FFF0000
7FFD0BFF8000
2FFF43FFE000
0BFFD0FFF800
02FFF43FFE00
00BFFC0FFF80
002FFD03FF80
000BF800FF40
0001E0002900
ENDCHAR
STARTCHAR logicalnot
ENCODING 172
SWIDTH 526 0
DWIDTH 17 0
BBX 17 10 0 4
BITMAP
3FFFFFFE00
7FFFFFFF40
BFFFFFFF40
7FFFFFFF40
7FFFFFFF40
155555FF40
000000FF40
000000FF40
000000FF40
0000007E00
ENDCHAR
STARTCHAR registered
ENCODING 174
SWIDTH 711 0
DWIDTH 23 0
BBX 22 21 0 3
BITMAP
0001AFE90000
006FFFFFE000
01FFFEFFFD00
07F90001FF00
0FE1AA902F80
1F82FFFD0FC0
2F42FFFF07D0
3F02F9BF43E0
3E02F43F43E0
3E02F47F43F0
7E02FFFF03F0
3E02FFFD03F0
3E02FFFE03E0
3F02F9BF07E0
2F42F43F47D0
1F82F42F4FC0
0FD050052F80
07F90006FF00
01FFFEFFFD00
006FFFFFE000
0005AFE90000
ENDCHAR
STARTCHAR degree
ENCODING 176
SWIDTH 407 0
DWIDTH 13 0
BBX 13 12 0 13
BITMAP
00594000
02FFE000
0BFFF800
2FFFFE00
3FD5FF00
3F80BF00
7F80BF40
3FC0FF00
2FFBFE00
1FFFFD00
07FFF400
00BF8000
ENDCHAR
STARTCHAR plusminus
ENCODING 177
SWIDTH 505 0
DWIDTH 16 0
BBX 16 18 0 0
BITMAP
00014000
000FF400
001FF400
001FF400
1ABFFEA8
3FFFFFFD
7FFFFFFD
3FFFFFFD
2FFFFFF8
001FF400
001FF400
000FF400
00014000
05555550
2FFFFFF8
2FFFFFFC
2FFFFFFC
1FFFFFF4
ENDCHAR
STARTCHAR twosuperior
ENCODING 178
SWIDTH 455 0
DWIDTH 15 0
BBX 14 17 0 7
BITMAP
006FE000
03FFFD00
0FFFFF40
2FFFFF80
3FFAFFD0
3FE07FD0
7FE07FD0
3FD0BFD0
1A42FFC0
001FFF40
01BFFE00
0BFFF800
1FFFFA90
3FFFFFF0
3FFFFFF0
3FFFFFF0
1FFFFFE0
ENDCHAR
STARTCHAR threesuperior
ENCODING 179
SWIDTH 457 0
DWIDTH 15 0
BBX 13 18 1 6
BITMAP
01BF9000
0BFFF800
2FFFFE00
7FFFFF00
7FE6FF40
3F81FF40
0602FF40
007FFE00
00BFFD00
007FFF40
6A16FF80
FF40FF80
FFC1FF80
BFFFFF40
7FFFFF00
2FFFFD00
07FFE000
00150000
ENDCHAR
STARTCHAR acute
ENCODING 180
SWIDTH 605 0
DWIDTH 19 0
BBX 10 7 5 18
BITMAP
001A00
06FF80
BFFFC0
FFFFD0
FFFF80
BFE400
290000
ENDCHAR
STARTCHAR mu
ENCODING 181
SWIDTH 601 0
DWIDTH 19 0
BBX 17 24 1 -7
BITMAP
2B8000BE40
BFE001FF80
BFF002FFC0
BFF002FFC0
BFF002FFC0
BFF002FFC0
BFF002FFC0
BFF002FFC0
BFF002FFC0
BFF002FFC0
BFF80BFFC0
BFFFBFFFC0
BFFFFFFFC0
BFFFFFFFC0
BFFFFFFFC0
BFFFFDFF80
BFF6A0AA00
BFF0000000
BFF0000000
BFF0000000
BFF0000000
BFF0000000
BFE0000000
7FD0000000
ENDCHAR
STARTCHAR paragraph
ENCODING 182
SWIDTH 614 0
DWIDTH 20 0
BBX 17 28 1 -8
BITMAP
05AAAAA900
2FFFFFFF80
BFFFFFFF80
FFFFFAFF80
FFFFF0BF80
FFFFF0BF80
FFFFF0BF80
FFFFF0BF80
BFFFF0BF80
7FFFF0BF80
2FFFF0BF80
016FF0BF80
001FF0BF80
001FF0BF80
001FF0BF80
001FF0BF80
001FF0BF80
001FF0BF80
001FF0BF80
001FF0BF80
001FF0BF80
001FF0BF80
001FF0BF80
001FF0BF80
001FF0BF80
001FF0BF80
000FE07F40
0001401500
ENDCHAR
STARTCHAR periodcentered
ENCODING 183
SWIDTH 237 0
DWIDTH 8 0
BBX 7 6 0 7
BITMAP
1BA0
3FF8
7FF8
7FF8
3FF8
2FF4
ENDCHAR
STARTCHAR cedilla
ENCODING 184
SWIDTH 559 0
DWIDTH 18 0
BBX 7 7 5 -6
BITMAP
1B90
7FF4
3FF8
04FC
2EF8
7FF4
2FD0
ENDCHAR
STARTCHAR onesuperior
ENCODING 185
SWIDTH 321 0
DWIDTH 10 0
BBX 9 17 0 7
BITMAP
001A40
00BFC0
02FFC0
0BFFC0
3FFFC0
7FFFC0
7FFFC0
2FFFC0
00BFC0
00BFC0
00BFC0
00BFC0
00BFC0
00BFC0
00BFC0
00BFC0
007F80
ENDCHAR
STARTCHAR ordmasculine
ENCODING 186
SWIDTH 439 0
DWIDTH 14 0
BBX 14 13 0 10
BITMAP
001A4000
02FFF800
0BFFFE00
1FFFFF40
3FF5BFC0
3FC03FC0
7FC02FD0
3FC03FC0
3FF5BFC0
1FFFFF80
0BFFFE00
02FFF800
001A9000
ENDCHAR
STARTCHAR guillemotright
ENCODING 187
SWIDTH 669 0
DWIDTH 21 0
BBX 21 17 0 0
BITMAP
060000900000
2FD003F80000
7FF40BFE0000
7FFD0BFF8000
2FFF43FFE000
0BFFD0FFF800
02FFF43FFE00
00BFFC0FFF80
002FFD03FFC0
007FFC0BFF80
01FFF42FFF00
07FFD0BFFC00
1FFF42FFF000
7FFD0BFFC000
7FF40BFF0000
2FD007FC0000
0A4001A00000
ENDCHAR
STARTCHAR onequarter
ENCODING 188
SWIDTH 786 0
DWIDTH 25 0
BBX 23 26 1 -1
BITMAP
00640002E000
01FD0003F000
07FD000BE000
2FFD000FC000
7FFD002F4000
7FFD007F0000
1AFD00BD0000
01FD01FC0000
01FD02F40000
01FD07E00000
01FD0FD00000
01FD1F854150
01FD3F4FD7F0
00A87E1FD7F4
0000FD2FD7F4
0002F82FC7F4
0003F03F87F4
000BE07F9BF4
000FC0BFFFF4
002F80BFFFF4
003F007FFFF4
00BD00155BF4
01FC000007F4
02F4000007F4
03F0000002E0
02D000000000
ENDCHAR
STARTCHAR onehalf
ENCODING 189
SWIDTH 804 0
DWIDTH 26 0
BBX 23 26 1 -1
BITMAP
00640002E000
01FD0003F000
07FD000BE000
2FFD000FC000
7FFD002F4000
7FFD007F0000
1AFD00BD0000
01FD01FC0000
01FD02F40000
01FD07E00000
01FD0FD00000
01FD1F816400
01FD3F4BFF40
00A87E2FFFD0
0000FD7FFFF0
0002F8BF9BF4
0003F0BF07F4
000BE0BE0FF0
000FC0147FE0
002F8002FFD0
003F001FFF40
00BD007FFEA4
01FC00BFFFF8
02F400BFFFF8
03F0002FFFF4
02D000000000
ENDCHAR
STARTCHAR threequarters
ENCODING 190
SWIDTH 842 0
DWIDTH 27 0
BBX 24 26 1 -1
BITMAP
006900002D00
07FFC0007E00
1FFFF000BD00
2FFFF401F800
2F87F803F400
0607F407E000
007FF00FD000
00BFF01F8000
156BF83F0000
7F42FCBE0000
7F97F8FC0000
3FFFF6F85014
1FFFE3F1FCBF
06FF4BD2FDBF
00001FC2FCBF
00002F43F8BF
00007F07F8BF
0000BD0BF5BF
0001F80BFFFF
0002F40FFFFF
0007E00BFFFF
000FD00155BF
001F800000BF
003F400000BF
007E0000006E
002C00000000
ENDCHAR
STARTCHAR questiondown
ENCODING 191
SWIDTH 511 0
DWIDTH 16 0
BBX 15 24 1 -7
BITMAP
002F9000
007FF000
00BFF400
00BFF400
007FF000
002FD000
00000000
00000000
00164000
007FE000
00BFE000
07FFE000
1FFFD000
7FFF8000
BFF90000
FFD00100
FFC00BE0
FFC01FF8
FFE07FF8
BFFFFFF4
7FFFFFF0
1FFFFFD0
07FFFF40
00BFE400
ENDCHAR
STARTCHAR Agrave
ENCODING 192
SWIDTH 765 0
DWIDTH 24 0
BBX 24 32 0 -1
BITMAP
0001A4000000
0002FF900000
0003FFFD0000
0007FFFF0000
0002FFFF0000
00001BFE0000
000000680000
000001400000
00000BF40000
00002FFC0000
00003FFD0000
00007FFF0000
0000FFFF4000
0001FFFFC000
0003FFFFD000
0007FFFFF000
000FFFFFF400
001FFFBFF800
003FFD3FFD00
007FFC1FFE00
00BFF40FFF40
01FFFAAFFF80
02FFFFFFFFD0
07FFFFFFFFE0
0BFFFFFFFFF4
1FFFFFFFFFF8
2FFE00003FFD
3FFC00002FFE
7FF800000FFF
7FF000000BFE
1BE0000003F8
014000000040
ENDCHAR
STARTCHAR Aacute
ENCODING 193
SWIDTH 765 0
DWIDTH 24 0
BBX 24 32 0 -1
BITMAP
0000001BC000
000006FFE000
00007FFFF000
00007FFFE000
00007FFF8000
00002F900000
000004000000
000001400000
00000BF40000
00002FFC0000
00003FFD0000
00007FFF0000
0000FFFF4000
0001FFFFC000
0003FFFFD000
0007FFFFF000
000FFFFFF400
001FFFBFF800
003FFD3FFD00
007FFC1FFE00
00BFF40FFF40
01FFFAAFFF80
02FFFFFFFFD0
07FFFFFFFFE0
0BFFFFFFFFF4
1FFFFFFFFFF8
2FFE00003FFD
3FFC00002FFE
7FF800000FFF
7FF000000BFE
1BE0000003F8
014000000040
ENDCHAR
STARTCHAR Acircumflex
ENCODING 194
SWIDTH 765 0
DWIDTH 24 0
BBX 24 32 0 -1
BITMAP
00001BF90000
0006FFFFE000
000FFFFFF800
000FFFFFF800
000BFEBFF000
0002A006D000
000000000000
000001400000
00000BF40000
00002FFC0000
00003FFD0000
00007FFF0000
0000FFFF4000
0001FFFFC000
0003FFFFD000
0007FFFFF000
000FFFFFF400
001FFFBFF800
003FFD3FFD00
007FFC1FFE00
00BFF40FFF40
01FFFAAFFF80
02FFFFFFFFD0
07FFFFFFFFE0
0BFFFFFFFFF4
1FFFFFFFFFF8
2FFE00003FFD
3FFC00002FFE
7FF800000FFF
7FF000000BFE
1BE0000003F8
014000000040
ENDCHAR
STARTCHAR Atilde
ENCODING 195
SWIDTH 765 0
DWIDTH 24 0
BBX 24 32 0 -1
BITMAP
0000BF42E000
0003FFEBF400
000BFFFFF400
000FFFFFF000
000BE2FFC000
000180690000
000000000000
000001400000
00000BF40000
00002FFC0000
00003FFD0000
00007FFF0000
0000FFFF4000
0001FFFFC000
0003FFFFD000
0007FFFFF000
000FFFFFF400
001FFFBFF800
003FFD3FFD00
007FFC1FFE00
00BFF40FFF40
01FFFAAFFF80
02FFFFFFFFD0
07FFFFFFFFE0
0BFFFFFFFFF4
1FFFFFFFFFF8
2FFE00003FFD
3FFC00002FFE
7FF800000FFF
7FF000000BFE
1BE0000003F8
014000000040
ENDCHAR
STARTCHAR Adieresis
ENCODING 196
SWIDTH 765 0
DWIDTH 24 0
BBX 24 32 0 -1
BITMAP
001FF40BF800
002FF80FFD00
002FFC1FFE00
002FFC1FFD00
002FF80FFD00
00069001A400
000000000000
000001400000
00000BF40000
00002FFC0000
00003FFD0000
00007FFF0000
0000FFFF4000
0001FFFFC000
0003FFFFD000
0007FFFFF000
000FFFFFF400
001FFFBFF800
003FFD3FFD00
007FFC1FFE00
00BFF40FFF40
01FFFAAFFF80
02FFFFFFFFD0
07FFFFFFFFE0
0BFFFFFFFFF4
1FFFFFFFFFF8
2FFE00003FFD
3FFC00002FFE
7FF800000FFF
7FF000000BFE
1BE0000003F8
014000000040
ENDCHAR
STARTCHAR Aring
ENCODING 197
SWIDTH 765 0
DWIDTH 24 0
BBX 24 31 0 -1
BITMAP
000001500000
00001FF80000
00007FBE0000
0000B81F0000
0000F40F4000
0000B40F4000
0000BE6F0000
00002FFD0000
00001FFC0000
00003FFD0000
00007FFF0000
0000FFFF4000
0001FFFFC000
0003FFFFD000
0007FFFFF000
000FFFFFF400
001FFFBFF800
002FFD3FFD00
007FFC1FFE00
00BFF40FFF40
01FFFAAFFF80
02FFFFFFFFD0
07FFFFFFFFE0
0BFFFFFFFFF4
1FFFFFFFFFF8
2FFE00003FFD
7FFC00002FFE
7FF800000FFF
7FF000000BFE
1BE0000003F8
014000000040
ENDCHAR
STARTCHAR AE
ENCODING 198
SWIDTH 1148 0
DWIDTH 37 0
BBX 36 25 0 -1
BITMAP
000000000555555554
000000002FFFFFFFFE
00000000BFFFFFFFFF
00000002FFFFFFFFFF
0000000BFFFFFFFFFE
0000002FFFFFFFFFFD
0000007FFFFD555540
000001FFFFFD000000
000007FFFFFD000000
00001FFFEFFEAAA900
00003FFF9FFFFFFF00
0000FFFE1FFFFFFF40
0003FFF81FFFFFFF40
000BFFE01FFFFFFF40
002FFFEAAFFFFFFE00
00BFFFFFFFFD000000
02FFFFFFFFFD000000
07FFFFFFFFFD000000
1FFFFFFFFFFEAAAAA8
7FFF55555FFFFFFFFE
FFFD00001FFFFFFFFF
FFF800001FFFFFFFFF
7FE000000FFFFFFFFE
2F80000002FFFFFFFD
010000000000000000
ENDCHAR
STARTCHAR Ccedilla
ENCODING 199
SWIDTH 679 0
DWIDTH 22 0
BBX 21 30 0 -6
BITMAP
000016A90000
0001FFFFE400
001FFFFFFE00
007FFFFFFF80
01FFFFFFFFC0
07FFFFFFFF80
0BFFF402FE00
1FFF80002800
2FFE00000000
3FFC00000000
3FF800000000
3FF800000000
7FF400000000
3FF800000000
3FFC00000000
2FFD00000000
1FFF00000000
0FFFD000BD00
07FFFE5BFF00
02FFFFFFFF80
00BFFFFFFFC0
002FFFFFFF40
0007FFFFF900
00006FFF9000
00000FFC0000
00000FFE0000
0000013F0000
000007BF0000
00000FFD0000
000007F40000
ENDCHAR
STARTCHAR Egrave
ENCODING 200
SWIDTH 638 0
DWIDTH 20 0
BBX 19 31 1 0
BITMAP
000A400000
002FF90000
003FFFE000
003FFFF400
001FFFF400
0001BFF000
0000069000
1555555550
7FFFFFFFF4
BFFFFFFFF8
BFFFFFFFF8
BFFFFFFFF4
BFFFFFFFF0
BFF5555500
BFF0000000
BFF0000000
BFFAAA9000
BFFFFFF800
BFFFFFFC00
BFFFFFFC00
BFFFFFFC00
BFFFFFF400
BFF0000000
BFF0000000
BFF0000000
BFFAAAAA90
BFFFFFFFF4
BFFFFFFFF8
BFFFFFFFF8
BFFFFFFFF4
2FFFFFFFE0
ENDCHAR
STARTCHAR Eacute
ENCODING 201
SWIDTH 638 0
DWIDTH 20 0
BBX 19 31 1 0
BITMAP
000006F000
0006BFF400
001FFFF800
001FFFF800
001FFF9000
000FE40000
0001000000
1555555550
7FFFFFFFF4
BFFFFFFFF8
BFFFFFFFF8
BFFFFFFFF4
BFFFFFFFF0
BFF5555500
BFF0000000
BFF0000000
BFFAAA9000
BFFFFFF800
BFFFFFFC00
BFFFFFFC00
BFFFFFFC00
BFFFFFF400
BFF0000000
BFF0000000
BFF0000000
BFFAAAAA90
BFFFFFFFF4
BFFFFFFFF8
BFFFFFFFF8
BFFFFFFFF4
2FFFFFFFE0
ENDCHAR
STARTCHAR Ecircumflex
ENCODING 202
SWIDTH 638 0
DWIDTH 20 0
BBX 19 31 1 0
BITMAP
0006FE4000
01BFFFF800
03FFFFFE00
03FFFFFE00
02FF9FFD00
00A901B400
0000000000
1555555550
7FFFFFFFF4
BFFFFFFFF8
BFFFFFFFF8
BFFFFFFFF4
BFFFFFFFF0
BFF5555500
BFF0000000
BFF0000000
BFFAAA9000
BFFFFFF800
BFFFFFFC00
BFFFFFFC00
BFFFFFFC00
BFFFFFF400
BFF0000000
BFF0000000
BFF0000000
BFFAAAAA90
BFFFFFFFF4
BFFFFFFFF8
BFFFFFFFF8
BFFFFFFFF4
2FFFFFFFE0
ENDCHAR
STARTCHAR Edieresis
ENCODING 203
SWIDTH 638 0
DWIDTH 20 0
BBX 19 31 1 0
BITMAP
03FD01FF40
0BFF03FF80
0BFF03FF80
0BFF03FF80
07FE02FF40
01A4006900
0000000000
1555555550
7FFFFFFFF4
BFFFFFFFF8
BFFFFFFFF8
BFFFFFFFF4
BFFFFFFFF0
BFF5555500
BFF0000000
BFF0000000
BFFAAA9000
BFFFFFF800
BFFFFFFC00
BFFFFFFC00
BFFFFFFC00
BFFFFFF400
BFF0000000
BFF0000000
BFF0000000
BFFAAAAA90
BFFFFFFFF4
BFFFFFFFF8
BFFFFFFFF8
BFFFFFFFF4
2FFFFFFFE0
ENDCHAR
STARTCHAR Igrave
ENCODING 204
SWIDTH 267 0
DWIDTH 9 0
BBX 10 31 -2 0
BITMAP
190000
3FE900
7FFFD0
7FFFF0
2FFFE0
01BFD0
000680
001500
01FF80
02FFC0
02FFC0
02FFC0
02FFC0
02FFC0
02FFC0
02FFC0
02FFC0
02FFC0
02FFC0
02FFC0
02FFC0
02FFC0
02FFC0
02FFC0
02FFC0
02FFC0
02FFC0
02FFC0
02FFC0
01FFC0
00BF40
ENDCHAR
STARTCHAR Iacute
ENCODING 205
SWIDTH 269 0
DWIDTH 9 0
BBX 10 31 0 0
BITMAP
001BD0
06FFE0
3FFFF0
7FFFF0
3FFF90
2FE400
040000
015000
1FF800
1FFC00
2FFC00
2FFC00
2FFC00
2FFC00
2FFC00
2FFC00
2FFC00
2FFC00
2FFC00
2FFC00
2FFC00
2FFC00
2FFC00
2FFC00
2FFC00
2FFC00
2FFC00
2FFC00
2FFC00
1FFC00
0BF400
ENDCHAR
STARTCHAR Icircumflex
ENCODING 206
SWIDTH 270 0
DWIDTH 9 0
BBX 13 31 -2 0
BITMAP
01BF9000
6FFFFE00
FFFFFF80
FFFFFF80
BFE7FF40
2A406D00
00000000
00150000
01FF8000
01FFC000
02FFC000
02FFC000
02FFC000
02FFC000
02FFC000
02FFC000
02FFC000
02FFC000
02FFC000
02FFC000
02FFC000
02FFC000
02FFC000
02FFC000
02FFC000
02FFC000
02FFC000
02FFC000
02FFC000
01FFC000
00BF4000
ENDCHAR
STARTCHAR Idieresis
ENCODING 207
SWIDTH 268 0
DWIDTH 9 0
BBX 15 31 -3 0
BITMAP
7FD02FF0
BFE03FF4
BFF03FF8
BFF03FF8
7FE03FF4
1A400690
00000000
00054000
003FE000
007FF000
007FF400
007FF400
007FF400
007FF400
007FF400
007FF400
007FF400
007FF400
007FF400
007FF400
007FF400
007FF400
007FF400
007FF400
007FF400
007FF400
007FF400
007FF400
007FF400
007FF000
002FD000
ENDCHAR
STARTCHAR Eth
ENCODING 208
SWIDTH 775 0
DWIDTH 25 0
BBX 24 24 0 0
BITMAP
001555540000
00FFFFFF9000
01FFFFFFF800
01FFFFFFFE00
01FFFFFFFFC0
01FFFFFFFFE0
01FFD55BFFF4
01FFD001FFFC
01FFD0003FFD
01FFD0001FFE
2FFFFD000FFF
3FFFFF000BFF
7FFFFF000BFF
3FFFFE000BFF
06FFE4000FFE
01FFD0002FFD
01FFD0007FFD
01FFD002FFF8
01FFEABFFFF0
01FFFFFFFFD0
01FFFFFFFF80
01FFFFFFFD00
01FFFFFFE000
00BFFFF94000
ENDCHAR
STARTCHAR Ntilde
ENCODING 209
SWIDTH 720 0
DWIDTH 23 0
BBX 21 31 1 0
BITMAP
000BF81E0000
002FFFBF8000
007FFFFF8000
00BFFFFF4000
007E1FFD0000
001802900000
000000000000
154000005500
7FE00002FF40
BFF40002FF80
BFFD0003FF80
BFFF0003FF80
BFFF8003FF80
BFFFD003FF80
BFFFF403FF80
BFFFFC03FF80
BFFFFE03FF80
BFFFFF43FF80
BFF7FFD3FF80
BFF2FFF3FF80
BFF0FFFBFF80
BFF07FFFFF80
BFF01FFFFF80
BFF00BFFFF80
BFF003FFFF80
BFF001FFFF80
BFF0007FFF80
BFF0002FFF80
BFF0000FFF80
BFE00007FF80
2F900001FE00
ENDCHAR
STARTCHAR Ograve
ENCODING 210
SWIDTH 775 0
DWIDTH 25 0
BBX 24 32 0 -1
BITMAP
0000A4000000
0002FF900000
0003FFFE0000
0003FFFF4000
0001FFFF4000
00001BFF0000
000000690000
00001AA90000
0002FFFFD000
001FFFFFFD00
00BFFFFFFF40
01FFFFFFFFD0
07FFFFFFFFF0
0BFFE407FFF8
1FFF8000BFFC
2FFE00002FFD
3FFC00001FFE
3FF800000FFF
3FF800000BFF
7FF400000BFF
3FF800000BFF
3FF800000FFE
2FFD00001FFE
2FFF00003FFD
0FFF8001FFFC
0BFFF95BFFF4
03FFFFFFFFE0
00FFFFFFFFC0
007FFFFFFE00
000BFFFFF800
0001BFFF9000
000005540000
ENDCHAR
STARTCHAR Oacute
ENCODING 211
SWIDTH 775 0
DWIDTH 25 0
BBX 24 32 0 -1
BITMAP
0000001BC000
00001BFFD000
00007FFFE000
0000BFFFE000
00007FFE4000
00003F900000
000004000000
00001AA90000
0002FFFFD000
001FFFFFFD00
00BFFFFFFF40
01FFFFFFFFD0
07FFFFFFFFF0
0BFFE407FFF8
1FFF8000BFFC
2FFE00002FFD
3FFC00001FFE
3FF800000FFF
3FF800000BFF
7FF400000BFF
3FF800000BFF
3FF800000FFE
2FFD00001FFE
2FFF00003FFD
0FFF8001FFFC
0BFFF95BFFF4
03FFFFFFFFE0
00FFFFFFFFC0
007FFFFFFE00
000BFFFFF800
0001BFFF9000
000005540000
ENDCHAR
STARTCHAR Ocircumflex
ENCODING 212
SWIDTH 775 0
DWIDTH 25 0
BBX 24 32 0 -1
BITMAP
00001BF90000
0002FFFFE000
000FFFFFF800
000BFFFFF800
0007FE6FF400
0002A406E000
000000000000
00001AA90000
0002FFFFD000
001FFFFFFD00
00BFFFFFFF40
01FFFFFFFFD0
07FFFFFFFFF0
0BFFE407FFF8
1FFF8000BFFC
2FFE00002FFD
3FFC00001FFE
3FF800000FFF
3FF800000BFF
7FF400000BFF
3FF800000BFF
3FF800000FFE
2FFD00001FFE
2FFF00003FFD
0FFF8001FFFC
0BFFF95BFFF4
03FFFFFFFFE0
00FFFFFFFFC0
007FFFFFFE00
000BFFFFF800
0001BFFF9000
000005540000
ENDCHAR
STARTCHAR Otilde
ENCODING 213
SWIDTH 775 0
DWIDTH 25 0
BBX 24 32 0 -1
BITMAP
00006FD0B800
0001FFFAFD00
0003FFFFFD00
0007FFFFF800
0002F4BFE000
0000501A4000
000000000000
00001AA90000
0002FFFFD000
001FFFFFFD00
00BFFFFFFF40
01FFFFFFFFD0
07FFFFFFFFF0
0BFFE407FFF8
1FFF8000BFFC
2FFE00002FFD
3FFC00001FFE
3FF800000FFF
3FF800000BFF
7FF400000BFF
3FF800000BFF
3FF800000FFE
2FFD00001FFE
2FFF00003FFD
0FFF8001FFFC
0BFFF95BFFF4
03FFFFFFFFE0
00FFFFFFFFC0
007FFFFFFE00
000BFFFFF800
0001BFFF9000
000005540000
ENDCHAR
STARTCHAR Odieresis
ENCODING 214
SWIDTH 775 0
DWIDTH 25 0
BBX 24 32 0 -1
BITMAP
001FF40BF800
002FF81FFD00
003FF81FFD00
003FF81FFD00
002FF80FFC00
000690019400
000000000000
00001AA90000
0002FFFFD000
001FFFFFFD00
00BFFFFFFF40
01FFFFFFFFD0
07FFFFFFFFF0
0BFFE407FFF8
1FFF8000BFFC
2FFE00002FFD
3FFC00001FFE
3FF800000FFF
3FF800000BFF
7FF400000BFF
3FF800000BFF
3FF800000FFE
2FFD00001FFE
2FFF00003FFD
0FFF8001FFFC
0BFFF95BFFF4
03FFFFFFFFE0
00FFFFFFFFC0
007FFFFFFE00
000BFFFFF800
0001BFFF9000
000005540000
ENDCHAR
STARTCHAR multiply
ENCODING 215
SWIDTH 521 0
DWIDTH 17 0
BBX 15 15 1 1
BITMAP
1E0006D0
BF801FF4
FFE07FF8
FFF9FFF8
7FFFFFE0
1FFFFFC0
07FFFF00
01FFFC00
07FFFE00
1FFFFF80
7FFFFFE0
FFF9FFF8
FFE07FF8
BF801FF4
2E0007D0
ENDCHAR
STARTCHAR Oslash
ENCODING 216
SWIDTH 775 0
DWIDTH 25 0
BBX 24 27 0 -2
BITMAP
00000000F800
00001AA6FF40
0002FFFFFF80
001FFFFFFF40
00BFFFFFFF40
01FFFFFFFFD0
07FFFFFFFFF0
0BFFE47FFFF8
1FFF80FFFFFC
2FFE01FFFFFD
3FFC03FFDFFE
3FF807FF4FFE
3FF80FFF0BFF
7FF41FFE0BFF
3FF82FFC0BFF
3FF87FF80FFE
2FFDBFF01FFE
2FFFFFE03FFD
0FFFFFC1FFFC
0BFFFF9BFFF4
03FFFFFFFFE0
00FFFFFFFFC0
003FFFFFFE00
003FFFFFF800
007FFFFF9000
002FE5540000
000680000000
ENDCHAR
STARTCHAR Ugrave
ENCODING 217
SWIDTH 726 0
DWIDTH 23 0
BBX 21 32 1 -1
BITMAP
002900000000
007FE4000000
00BFFF800000
00FFFFD00000
007FFFD00000
0006FFC00000
000016400000
154000005500
7FE00001FF80
BFF00002FFC0
BFF00002FFC0
BFF00002FFC0
BFF00002FFC0
BFF00002FFC0
BFF00002FFC0
BFF00002FFC0
BFF00002FFC0
BFF00002FFC0
BFF00002FFC0
BFF00002FFC0
BFF00002FFC0
BFF00003FFC0
7FF40003FF80
7FFC000BFF40
3FFE001FFF00
1FFF95BFFE00
0FFFFFFFFC00
07FFFFFFF400
01FFFFFFE000
007FFFFF4000
000BFFF80000
000055400000
ENDCHAR
STARTCHAR Uacute
ENCODING 218
SWIDTH 726 0
DWIDTH 23 0
BBX 21 32 1 -1
BITMAP
0000006F0000
00006FFF4000
0001FFFF8000
0002FFFF8000
0001FFF90000
0000FE400000
000010000000
154000005500
7FE00001FF80
BFF00002FFC0
BFF00002FFC0
BFF00002FFC0
BFF00002FFC0
BFF00002FFC0
BFF00002FFC0
BFF00002FFC0
BFF00002FFC0
BFF00002FFC0
BFF00002FFC0
BFF00002FFC0
BFF00002FFC0
BFF00003FFC0
7FF40003FF80
7FFC000BFF40
3FFE001FFF00
1FFF95BFFE00
0FFFFFFFFC00
07FFFFFFF400
01FFFFFFE000
007FFFFF4000
000BFFF80000
000055400000
ENDCHAR
STARTCHAR Ucircumflex
ENCODING 219
SWIDTH 726 0
DWIDTH 23 0
BBX 21 32 1 -1
BITMAP
00006F900000
001BFFFE4000
007FFFFFD000
007FFFFFD000
002FFAFFC000
000A401B4000
000000000000
154000005500
7FE00001FF80
BFF00002FFC0
BFF00002FFC0
BFF00002FFC0
BFF00002FFC0
BFF00002FFC0
BFF00002FFC0
BFF00002FFC0
BFF00002FFC0
BFF00002FFC0
BFF00002FFC0
BFF00002FFC0
BFF00002FFC0
BFF00003FFC0
7FF40003FF80
7FFC000BFF40
3FFE001FFF00
1FFF95BFFE00
0FFFFFFFFC00
07FFFFFFF400
01FFFFFFE000
007FFFFF4000
000BFFF80000
000055400000
ENDCHAR
STARTCHAR Udieresis
ENCODING 220
SWIDTH 726 0
DWIDTH 23 0
BBX 21 32 1 -1
BITMAP
00BF807FD000
01FFC0BFE000
02FFC0FFE000
02FFC0FFE000
01FFC0BFE000
0069001A4000
000000000000
154000005500
7FE00001FF80
BFF00002FFC0
BFF00002FFC0
BFF00002FFC0
BFF00002FFC0
BFF00002FFC0
BFF00002FFC0
BFF00002FFC0
BFF00002FFC0
BFF00002FFC0
BFF00002FFC0
BFF00002FFC0
BFF00002FFC0
BFF00003FFC0
7FF40003FF80
7FFC000BFF40
3FFE001FFF00
1FFF95BFFE00
0FFFFFFFFC00
07FFFFFFF400
01FFFFFFE000
007FFFFF4000
000BFFF80000
000055400000
ENDCHAR
STARTCHAR Yacute
ENCODING 221
SWIDTH 686 0
DWIDTH 22 0
BBX 22 31 0 0
BITMAP
000001BD0000
00006FFF0000
0003FFFF4000
0003FFFF0000
0003FFF90000
0001FE400000
000050000000
068000002900
2FE00000FF80
7FF40002FFD0
7FFC0007FFD0
3FFE000BFFC0
1FFF401FFF40
0BFFC03FFE00
03FFE0BFFC00
01FFF5FFF400
00BFFBFFE000
003FFFFFC000
001FFFFF4000
000BFFFE0000
0003FFFC0000
0001FFF40000
0000FFF00000
0000FFE00000
0000FFE00000
0000FFE00000
0000FFE00000
0000FFE00000
0000FFE00000
0000BFE00000
00007FD00000
ENDCHAR
STARTCHAR Thorn
ENCODING 222
SWIDTH 634 0
DWIDTH 20 0
BBX 19 24 1 0
BITMAP
1540000000
7FE0000000
BFF0000000
BFF5540000
BFFFFF9000
BFFFFFF800
BFFFFFFF40
BFFFFFFFC0
BFFFFFFFE0
BFF55BFFF0
BFF000BFF4
BFF0007FF4
BFF0007FF4
BFF000BFF4
BFF001FFF0
BFFFFFFFE0
BFFFFFFFD0
BFFFFFFF80
BFFFFFFE00
BFFFFFF400
BFFAAA4000
BFF0000000
BFE0000000
2F90000000
ENDCHAR
STARTCHAR germandbls
ENCODING 223
SWIDTH 633 0
DWIDTH 20 0
BBX 19 25 1 -1
BITMAP
006FFE8000
07FFFFF400
2FFFFFFD00
3FFFFFFE00
7FFEAFFE00
BFF40BFD00
BFF01FFD00
BFE03FF800
BFE0BFF400
BFE0FFD000
BFE0FFC000
BFE0FFE000
BFE0BFF800
BFE07FFF40
BFE01FFFD0
BFE002FFE0
BFE000BFF4
BFE0003FF4
BFE0643FF4
BFE0FFFFF4
BFE1FFFFF4
BFE2FFFFE0
BFE1FFFFD0
BFE06FFE00
2FD0000000
ENDCHAR
STARTCHAR agrave
ENCODING 224
SWIDTH 596 0
DWIDTH 19 0
BBX 18 25 0 0
BITMAP
0006400000
001FF90000
002FFFF400
002FFFF800
001FFFF800
00016FF400
0000019000
0000000000
0006A42A80
007FFEBFE0
02FFFFFFE0
07FFFFFFE0
0FFFFFFFE0
2FFFEFFFE0
3FFD03FFE0
3FF801FFE0
7FF400FFE0
3FF801FFE0
3FFD02FFE0
2FFFAFFFE0
1FFFFFFFE0
0BFFFFFFE0
02FFFFFFE0
00BFFFBFE0
001BE82F90
ENDCHAR
STARTCHAR aacute
ENCODING 225
SWIDTH 596 0
DWIDTH 19 0
BBX 18 25 0 0
BITMAP
000001A000
00006FF800
000BFFFC00
001FFFFC00
000FFFF800
000BFE4000
0006900000
0000000000
0006A42A80
007FFEBFE0
02FFFFFFE0
07FFFFFFE0
0FFFFFFFE0
2FFFEFFFE0
3FFD03FFE0
3FF801FFE0
7FF400FFE0
3FF801FFE0
3FFD02FFE0
2FFFAFFFE0
1FFFFFFFE0
0BFFFFFFE0
02FFFFFFE0
00BFFFBFE0
001BE82F90
ENDCHAR
STARTCHAR acircumflex
ENCODING 226
SWIDTH 596 0
DWIDTH 19 0
BBX 18 25 0 0
BITMAP
00006A4000
001BFFF900
00BFFFFF40
00FFFFFF80
00BFFFFF80
003F91BF00
0004000400
0000000000
0006A42A80
007FFEBFE0
02FFFFFFE0
07FFFFFFE0
0FFFFFFFE0
2FFFEFFFE0
3FFD03FFE0
3FF801FFE0
7FF400FFE0
3FF801FFE0
3FFD02FFE0
2FFFAFFFE0
1FFFFFFFE0
0BFFFFFFE0
02FFFFFFE0
00BFFFBFE0
001BE82F90
ENDCHAR
STARTCHAR atilde
ENCODING 227
SWIDTH 596 0
DWIDTH 19 0
BBX 18 25 0 0
BITMAP
0006A41900
001FFE7F40
007FFFFF80
00FFFFFF40
00BF7FFE00
002D0BF400
0000000000
0000000000
0006A42A80
007FFEBFE0
02FFFFFFE0
07FFFFFFE0
0FFFFFFFE0
2FFFEFFFE0
3FFD03FFE0
3FF801FFE0
7FF400FFE0
3FF801FFE0
3FFD02FFE0
2FFFAFFFE0
1FFFFFFFE0
0BFFFFFFE0
02FFFFFFE0
00BFFFBFE0
001BE82F90
ENDCHAR
STARTCHAR adieresis
ENCODING 228
SWIDTH 596 0
DWIDTH 19 0
BBX 18 25 0 0
BITMAP
00AA006A40
02FF80FFD0
02FFC0FFE0
02FFC0FFE0
02FF80FFD0
00BE407F80
0000000000
0000000000
0006A42A80
007FFEBFE0
02FFFFFFE0
07FFFFFFE0
0FFFFFFFE0
2FFFEFFFE0
3FFD03FFE0
3FF801FFE0
7FF400FFE0
3FF801FFE0
3FFD02FFE0
2FFFAFFFE0
1FFFFFFFE0
0BFFFFFFE0
02FFFFFFE0
00BFFFBFE0
001BE82F90
ENDCHAR
STARTCHAR aring
ENCODING 229
SWIDTH 596 0
DWIDTH 19 0
BBX 18 24 0 0
BITMAP
00006E4000
0001FBD000
0002D1E000
0002C0E000
0001E6D000
0000BF8000
0000150000
0006A42A80
007FFEBFE0
02FFFFFFE0
07FFFFFFE0
0FFFFFFFE0
2FFFEFFFE0
3FFD03FFE0
3FF801FFE0
7FF400FFE0
3FF801FFE0
3FFD02FFE0
2FFFAFFFE0
1FFFFFFFE0
0BFFFFFFE0
02FFFFFFE0
00BFFFBFE0
001BE82F90
ENDCHAR
STARTCHAR ae
ENCODING 230
SWIDTH 910 0
DWIDTH 29 0
BBX 29 18 0 -1
BITMAP
006FFE402BFE4000
02FFFFE2FFFFE000
0FFFFFFFFFFFF800
2FFFFFFFFFFFFD00
2FFFFFFFFFFFFF00
0FFD1BFFF90BFF40
07F003FFF007FF40
004002FFFAABFF40
01AFE6FFFFFFFF00
0BFFFFFFFFFFFD00
2FFFFFFFF5555000
3FF405FFF4005000
7FE002FFFFABF800
3FFAAFFFFFFFFD00
2FFFFFFFFFFFFD00
1FFFFF82FFFFFC00
06FFF9006FFF9000
0015400000400000
ENDCHAR
STARTCHAR ccedilla
ENCODING 231
SWIDTH 524 0
DWIDTH 17 0
BBX 16 24 0 -6
BITMAP
00001000
000BFF90
00BFFFF8
02FFFFFE
0BFFFFFF
1FFFFFFE
2FFFEBFC
3FFE01A0
3FFC0000
7FF80000
3FFC0000
3FFD01A0
2FFFABF8
1FFFFFFE
0BFFFFFF
02FFFFFE
00BFFFF8
001BFF90
0007FF00
0007FF40
00011F80
0003EF80
0007FF00
0002F900
ENDCHAR
STARTCHAR egrave
ENCODING 232
SWIDTH 573 0
DWIDTH 18 0
BBX 18 26 0 -1
BITMAP
0019400000
003FF90000
007FFFD000
007FFFF000
002FFFE000
0001BFD000
0000068000
0000100000
001BFFE000
00BFFFFD00
02FFFFFF00
0BFFFFFF80
1FFFFFFFD0
2FFF41FFD0
3FFC00FFE0
3FFEAAFFD0
7FFFFFFFD0
3FFFFFFF40
3FFD555400
2FFD000400
1FFFAABF00
0BFFFFFF40
03FFFFFF80
01FFFFFF40
001FFFFD00
0000554000
ENDCHAR
STARTCHAR eacute
ENCODING 233
SWIDTH 573 0
DWIDTH 18 0
BBX 18 26 0 -1
BITMAP
000001A000
00006FF400
000BFFF800
002FFFF800
001FFFF400
000FFE4000
0006400000
0000100000
001BFFE000
00BFFFFD00
02FFFFFF00
0BFFFFFF80
1FFFFFFFD0
2FFF41FFD0
3FFC00FFE0
3FFEAAFFD0
7FFFFFFFD0
3FFFFFFF40
3FFD555400
2FFD000400
1FFFAABF00
0BFFFFFF40
03FFFFFF80
01FFFFFF40
001FFFFD00
0000554000
ENDCHAR
STARTCHAR ecircumflex
ENCODING 234
SWIDTH 573 0
DWIDTH 18 0
BBX 18 26 0 -1
BITMAP
0001A90000
006FFFE400
02FFFFFE00
03FFFFFF00
02FFFFFE00
00FE46FC00
0010001000
0000100000
001BFFE000
00BFFFFD00
02FFFFFF00
0BFFFFFF80
1FFFFFFFD0
2FFF41FFD0
3FFC00FFE0
3FFEAAFFD0
7FFFFFFFD0
3FFFFFFF40
3FFD555400
2FFD000400
1FFFAABF00
0BFFFFFF40
03FFFFFF80
01FFFFFF40
001FFFFD00
0000554000
ENDCHAR
STARTCHAR edieresis
ENCODING 235
SWIDTH 573 0
DWIDTH 18 0
BBX 18 26 0 -1
BITMAP
02A801A900
0BFE03FF40
0FFE07FF40
0FFE07FF40
0BFE03FF40
06F802FE00
0000000000
0000100000
001BFFE000
00BFFFFD00
02FFFFFF00
0BFFFFFF80
1FFFFFFFD0
2FFF41FFD0
3FFC00FFE0
3FFEAAFFD0
7FFFFFFFD0
3FFFFFFF40
3FFD555400
2FFD000400
1FFFAABF00
0BFFFFFF40
03FFFFFF80
01FFFFFF40
001FFFFD00
0000554000
ENDCHAR
STARTCHAR igrave
ENCODING 236
SWIDTH 255 0
DWIDTH 8 0
BBX 10 25 -2 0
BITMAP
190000
3FF900
7FFFD0
7FFFF0
2FFFE0
01BFD0
000680
000000
00AA00
02FF80
02FFC0
02FFC0
02FFC0
02FFC0
02FFC0
02FFC0
02FFC0
02FFC0
02FFC0
02FFC0
02FFC0
02FFC0
02FFC0
02FF80
00BE40
ENDCHAR
STARTCHAR iacute
ENCODING 237
SWIDTH 255 0
DWIDTH 8 0
BBX 10 25 0 0
BITMAP
000680
01BFD0
2FFFE0
7FFFF0
7FFFD0
3FF900
194000
000000
0AA000
2FF800
2FFC00
2FFC00
2FFC00
2FFC00
2FFC00
2FFC00
2FFC00
2FFC00
2FFC00
2FFC00
2FFC00
2FFC00
2FFC00
2FF800
0BE400
ENDCHAR
STARTCHAR icircumflex
ENCODING 238
SWIDTH 255 0
DWIDTH 8 0
BBX 14 25 -3 0
BITMAP
001A4000
06FFF900
3FFFFFD0
7FFFFFD0
3FFFFFD0
1FD06F80
01000500
00000000
002A8000
00BFE000
00BFF000
00BFF000
00BFF000
00BFF000
00BFF000
00BFF000
00BFF000
00BFF000
00BFF000
00BFF000
00BFF000
00BFF000
00BFF000
00BFE000
002F9000
ENDCHAR
STARTCHAR idieresis
ENCODING 239
SWIDTH 255 0
DWIDTH 8 0
BBX 15 25 -3 0
BITMAP
6A401A90
FFD07FF0
FFE07FF4
FFE07FF4
FFE07FF0
7F802FD0
00000000
00000000
002A8000
00BFE000
00BFF000
00BFF000
00BFF000
00BFF000
00BFF000
00BFF000
00BFF000
00BFF000
00BFF000
00BFF000
00BFF000
00BFF000
00BFF000
00BFE000
002FD000
ENDCHAR
STARTCHAR eth
ENCODING 240
SWIDTH 585 0
DWIDTH 19 0
BBX 17 27 1 -1
BITMAP
0000280000
00197E0000
007FFD0000
00FFF80000
00FFFE0000
002FFF8000
003FFFE000
00BE2FF400
00280BFC00
000552FD00
00BFFEFF00
07FFFFFF40
1FFFFFFF40
3FFFFFFF80
7FFFBFFF80
BFF40BFFC0
FFE003FFC0
FFD002FFC0
FFD002FF80
FFE007FF80
BFFD6FFF40
7FFFFFFF00
2FFFFFFD00
0FFFFFF400
02FFFFD000
006FFE0000
0001500000
ENDCHAR
STARTCHAR ntilde
ENCODING 241
SWIDTH 606 0
DWIDTH 19 0
BBX 17 25 1 0
BITMAP
001A40A000
01FFE6F800
03FFFFFC00
07FFFFF800
07FAFFF000
01E07F8000
0000000000
0000000000
2B91AA4000
BFEBFFE000
BFFFFFF800
BFFFFFFE00
BFFFFFFF40
BFFFBFFF80
BFF807FFC0
BFF002FFC0
BFF002FFC0
BFF002FFC0
BFF002FFC0
BFF002FFC0
BFF002FFC0
BFF002FFC0
BFF001FFC0
BFE001FFC0
2F9000BF40
ENDCHAR
STARTCHAR ograve
ENCODING 242
SWIDTH 600 0
DWIDTH 19 0
BBX 19 26 0 -1
BITMAP
000A400000
002FF90000
003FFFE000
003FFFF400
002FFFF000
0001BFE000
0000069000
0000140000
001BFF9000
00BFFFF800
02FFFFFF00
0BFFFFFF80
1FFFFFFFD0
2FFF9BFFF0
3FFD00FFF0
3FF8007FF4
7FF8007FF4
3FF8007FF4
3FFD00FFF4
2FFF9BFFF0
1FFFFFFFD0
0BFFFFFF80
02FFFFFF00
00BFFFF800
001BFF9000
0000540000
ENDCHAR
STARTCHAR oacute
ENCODING 243
SWIDTH 600 0
DWIDTH 19 0
BBX 19 26 0 -1
BITMAP
000001A000
00006FF800
000BFFFC00
001FFFFC00
001FFFF400
000FFE4000
0006900000
0000140000
001BFF9000
00BFFFF800
02FFFFFF00
0BFFFFFF80
1FFFFFFFD0
2FFF9BFFF0
3FFD00FFF0
3FF8007FF4
7FF8007FF4
3FF8007FF4
3FFD00FFF4
2FFF9BFFF0
1FFFFFFFD0
0BFFFFFF80
02FFFFFF00
00BFFFF800
001BFF9000
0000540000
ENDCHAR
STARTCHAR ocircumflex
ENCODING 244
SWIDTH 600 0
DWIDTH 19 0
BBX 19 26 0 -1
BITMAP
0000690000
001BFFE400
01FFFFFE00
02FFFFFF00
01FFFFFE00
00BE42FD00
0010001000
0000140000
001BFF9000
00BFFFF800
02FFFFFF00
0BFFFFFF80
1FFFFFFFD0
2FFF9BFFF0
3FFD00FFF0
3FF8007FF4
7FF8007FF4
3FF8007FF4
3FFD00FFF4
2FFF9BFFF0
1FFFFFFFD0
0BFFFFFF80
02FFFFFF00
00BFFFF800
001BFF9000
0000540000
ENDCHAR
STARTCHAR otilde
ENCODING 245
SWIDTH 600 0
DWIDTH 19 0
BBX 19 26 0 -1
BITMAP
000A902400
007FF9BE00
00FFFFFF00
02FFFFFE00
02FEBFF800
00B41FE000
0000000000
0000140000
001BFF9000
00BFFFF800
02FFFFFF00
0BFFFFFF80
1FFFFFFFD0
2FFF9BFFF0
3FFD00FFF0
3FF8007FF4
7FF8007FF4
3FF8007FF4
3FFD00FFF4
2FFF9BFFF0
1FFFFFFFD0
0BFFFFFF80
02FFFFFF00
00BFFFF800
001BFF9000
0000540000
ENDCHAR
STARTCHAR odieresis
ENCODING 246
SWIDTH 600 0
DWIDTH 19 0
BBX 19 26 0 -1
BITMAP
02A801A900
07FE03FF40
0BFF03FF80
0BFF03FF80
0BFF03FF40
02F901FE00
0000000000
0000140000
001BFF9000
00BFFFF800
02FFFFFF00
0BFFFFFF80
1FFFFFFFD0
2FFF9BFFF0
3FFD00FFF0
3FF8007FF4
7FF8007FF4
3FF8007FF4
3FFD00FFF4
2FFF9BFFF0
1FFFFFFFD0
0BFFFFFF80
02FFFFFF00
00BFFFF800
001BFF9000
0000540000
ENDCHAR
STARTCHAR divide
ENCODING 247
SWIDTH 503 0
DWIDTH 16 0
BBX 16 18 0 0
BITMAP
00055000
001FF400
002FF800
002FF800
001FF400
0006A000
00000000
2FFFFFF8
3FFFFFFD
7FFFFFFD
3FFFFFFC
06AAAA94
00014000
000FF400
001FF800
002FF800
001FF800
000BE000
ENDCHAR
STARTCHAR oslash
ENCODING 248
SWIDTH 600 0
DWIDTH 19 0
BBX 19 27 0 -5
BITMAP
0000002900
000000BFC0
000000FFD0
000002FFD0
000017FFC0
000BFFFF40
00BFFFFF00
02FFFFFF00
0BFFFFFF80
1FFFFFFFD0
2FFF9BFFF0
3FFD00FFF0
3FF8007FF4
7FF8007FF4
3FF8007FF4
3FFD00FFF4
2FFF9BFFF0
1FFFFFFFD0
0BFFFFFFC0
02FFFFFF00
02FFFFF800
03FFFF9000
0BFF540000
0FFE000000
1FFD000000
0FF8000000
01E4000000
ENDCHAR
STARTCHAR ugrave
ENCODING 249
SWIDTH 606 0
DWIDTH 19 0
BBX 17 25 1 0
BITMAP
0029000000
00BFE40000
00FFFF8000
00FFFFD000
00BFFFC000
0006FF8000
00001A0000
0000000000
2F8000AE40
BFE001FFC0
BFF001FFC0
BFF001FFC0
BFF001FFC0
BFF001FFC0
BFF001FFC0
BFF001FFC0
BFF002FFC0
BFF002FFC0
BFF807FFC0
7FFFAFFFC0
3FFFFFFFC0
1FFFFFFFC0
0BFFFFFFC0
01FFFDFFC0
002BE0BF40
ENDCHAR
STARTCHAR uacute
ENCODING 250
SWIDTH 606 0
DWIDTH 19 0
BBX 17 25 1 0
BITMAP
0000019000
0001BFF000
001FFFF400
002FFFF400
002FFFE000
001FF90000
000A400000
0000000000
2F8000AE40
BFE001FFC0
BFF001FFC0
BFF001FFC0
BFF001FFC0
BFF001FFC0
BFF001FFC0
BFF001FFC0
BFF002FFC0
BFF002FFC0
BFF807FFC0
7FFFAFFFC0
3FFFFFFFC0
1FFFFFFFC0
0BFFFFFFC0
01FFFDFFC0
002BE0BF40
ENDCHAR
STARTCHAR ucircumflex
ENCODING 251
SWIDTH 606 0
DWIDTH 19 0
BBX 17 25 1 0
BITMAP
0001A40000
006FFF9000
07FFFFF800
0BFFFFFD00
07FFFFFC00
02F90BF400
0040005000
0000000000
2F8000AE40
BFE001FFC0
BFF001FFC0
BFF001FFC0
BFF001FFC0
BFF001FFC0
BFF001FFC0
BFF001FFC0
BFF002FFC0
BFF002FFC0
BFF807FFC0
7FFFAFFFC0
3FFFFFFFC0
1FFFFFFFC0
0BFFFFFFC0
01FFFDFFC0
002BE0BF40
ENDCHAR
STARTCHAR udieresis
ENCODING 252
SWIDTH 606 0
DWIDTH 19 0
BBX 17 25 1 0
BITMAP
06A402A800
1FFC0BFE00
2FFC0FFE00
2FFC0FFE00
1FFC0BFE00
0BF406F800
0000000000
0000000000
2F8000AE40
BFE001FFC0
BFF001FFC0
BFF001FFC0
BFF001FFC0
BFF001FFC0
BFF001FFC0
BFF001FFC0
BFF002FFC0
BFF002FFC0
BFF807FFC0
7FFFAFFFC0
3FFFFFFFC0
1FFFFFFFC0
0BFFFFFFC0
01FFFDFFC0
002BE0BF40
ENDCHAR
STARTCHAR yacute
ENCODING 253
SWIDTH 604 0
DWIDTH 19 0
BBX 19 33 0 -8
BITMAP
0000016400
00006FFC00
0007FFFD00
000FFFFD00
000BFFF800
0007FE4000
0002900000
0000000000
0BD0000FD0
3FF0002FF8
7FF8003FF8
3FFD00BFF8
2FFE00FFF0
0FFF41FFE0
07FFC3FFD0
02FFE7FF80
01FFFFFF40
00BFFFFF00
003FFFFD00
001FFFFC00
000FFFF800
0007FFF000
0002FFE000
0003FFD000
0007FF8000
000BFF4000
001FFF0000
002FFD0000
003FFC0000
007FF80000
007FF00000
002FE00000
0001400000
ENDCHAR
STARTCHAR thorn
ENCODING 254
SWIDTH 580 0
DWIDTH 19 0
BBX 17 33 1 -8
BITMAP
7FC0000000
BFD0000000
BFD0000000
BFE0000000
BFE0000000
BFE0000000
BFE0000000
BFE0000000
BFE2A90000
BFEFFF8000
BFFFFFF400
BFFFFFFC00
BFFFFFFE00
BFFFBFFF40
BFF80BFF40
BFF003FF80
BFE003FF80
BFE003FF80
BFF40BFF80
BFFEBFFF40
BFFFFFFE00
BFFFFFFC00
BFFFFFF400
BFFFFFD000
BFD6F90000
BFD0000000
BFD0000000
BFD0000000
BFD0000000
BFD0000000
BFD0000000
7FC0000000
0500000000
ENDCHAR
STARTCHAR ydieresis
ENCODING 255
SWIDTH 604 0
DWIDTH 19 0
BBX 19 33 0 -8
BITMAP
01A9006A40
03FF41FFC0
07FF42FFC0
07FF82FFC0
03FF41FFC0
01FE00BF40
0000000000
0000000000
0BD0000FD0
3FF0002FF8
7FF8003FF8
3FFD00BFF8
2FFE00FFF0
0FFF41FFE0
07FFC3FFD0
02FFE7FF80
01FFFFFF40
00BFFFFF00
003FFFFD00
001FFFFC00
000FFFF800
0007FFF000
0002FFE000
0003FFD000
0007FF8000
000BFF4000
001FFF0000
002FFD0000
003FFC0000
007FF80000
007FF00000
002FE00000
0001400000
ENDCHAR
STARTCHAR dotlessi
ENCODING 305
SWIDTH 255 0
DWIDTH 8 0
BBX 6 17 1 0
BITMAP
2A80
BFE0
BFF0
BFF0
BFF0
BFF0
BFF0
BFF0
BFF0
BFF0
BFF0
BFF0
BFF0
BFF0
BFF0
BFE0
2F90
ENDCHAR
STARTCHAR Lslash
ENCODING 321
SWIDTH 687 0
DWIDTH 22 0
BBX 21 24 1 0
BITMAP
001500000000
01FF80000000
01FFC0000000
02FFC0000000
02FFC0000000
02FFC0000000
02FFC0000000
02FFC0000000
02FFDA800000
02FFFFE00000
06FFFFE00000
BFFFFFD00000
FFFFF9000000
FFFFC0000000
BFFFC0000000
02FFC0000000
02FFC0000000
02FFC0000000
02FFC0000000
02FFEAAAA900
02FFFFFFFF00
01FFFFFFFF40
01FFFFFFFF00
00BFFFFFFE00
ENDCHAR
STARTCHAR lslash
ENCODING 322
SWIDTH 468 0
DWIDTH 15 0
BBX 15 25 0 0
BITMAP
002A8000
00BFE000
00BFE000
00BFE000
00BFE000
00BFE000
00BFE000
00BFE000
00BFE000
00BFF6E0
00BFFFF4
01FFFFF4
2FFFFFF4
7FFFFE40
7FFFF000
3FFFE000
00BFE000
00BFE000
00BFF000
00BFF500
00BFFF80
007FFFC0
007FFFC0
002FFF80
0006FF40
ENDCHAR
STARTCHAR OE
ENCODING 338
SWIDTH 1092 0
DWIDTH 35 0
BBX 34 24 0 0
BITMAP
000005555555555540
0001FFFFFFFFFFFFE0
001FFFFFFFFFFFFFF0
007FFFFFFFFFFFFFF0
01FFFFFFFFFFFFFFF0
03FFFFFFFFFFFFFFE0
0BFFF401FFE5555500
1FFF8001FFD0000000
2FFE0001FFD0000000
3FFC0001FFEAAA9000
3FF80001FFFFFFF400
3FF80001FFFFFFF800
7FF40001FFFFFFF800
3FF80001FFFFFFF400
3FFC0001FFFFFFE000
2FFD0001FFE0000000
1FFF0001FFD0000000
0FFFD001FFD0000000
07FFFEAAFFEAAAAA80
02FFFFFFFFFFFFFFF0
00BFFFFFFFFFFFFFF0
002FFFFFFFFFFFFFF0
0007FFFFFFFFFFFFF0
00006BFFFFFFFFFFD0
ENDCHAR
STARTCHAR oe
ENCODING 339
SWIDTH 944 0
DWIDTH 30 0
BBX 30 18 0 -1
BITMAP
000BFF9006FF9000
00BFFFF87FFFF800
02FFFFFFFFFFFE00
0BFFFFFFFFFFFF80
1FFFFFFFFFFFFFC0
2FFF9BFFFF42FFD0
3FFD00FFFC00FFD0
3FF800BFFEAAFFD0
7FF4007FFFFFFFC0
7FF8007FFFFFFF40
3FFC00FFFD555400
2FFF97FFFD001400
1FFFFFFFFFEAFE00
0BFFFFFFFFFFFF40
02FFFFFFFFFFFF80
00BFFFF9BFFFFF40
001BFFD01BFFE400
0000540000140000
ENDCHAR
STARTCHAR Scaron
ENCODING 352
SWIDTH 583 0
DWIDTH 19 0
BBX 17 32 1 -1
BITMAP
03E40BE000
0BFFBFF400
0FFFFFF800
0FFFFFF800
01BFFF9000
0006E40000
0000000000
005AA90000
02FFFFD000
0BFFFFF800
2FFFFFFD00
7FFFFFFD00
BFFE6FF800
BFF007F000
BFF0000000
BFF4000000
7FFF900000
3FFFFF9000
1FFFFFF800
07FFFFFE00
007FFFFF40
0006BFFF80
00000BFF80
2F4003FF80
BFD003FF80
FFF80BFF80
FFFFFFFF40
7FFFFFFE00
2FFFFFFC00
0BFFFFE000
00BFFE4000
0001500000
ENDCHAR
STARTCHAR scaron
ENCODING 353
SWIDTH 489 0
DWIDTH 16 0
BBX 14 26 1 -1
BITMAP
19001900
7FE6FF40
BFFFFF80
BFFFFFC0
6FFFFE40
01BF9000
00040000
00010000
02FFF900
1FFFFF80
3FFFFFC0
7FFFFF80
BFE56F00
BFE00000
7FFE9000
3FFFFE00
2FFFFFC0
0BFFFFD0
00BFFFE0
2901BFE0
7FD5BFE0
FFFFFFE0
FFFFFFD0
BFFFFF40
0BFFF900
00150000
ENDCHAR
STARTCHAR Ydieresis
ENCODING 376
SWIDTH 686 0
DWIDTH 22 0
BBX 22 31 0 0
BITMAP
00BF803FE000
00FFD07FF000
01FFD0BFF000
01FFD0BFF000
00FFD07FF000
001A401A4000
000000000000
068000002900
2FE00000FF80
7FF40002FFD0
7FFC0007FFD0
3FFE000BFFC0
1FFF401FFF40
0BFFC03FFE00
03FFE0BFFC00
01FFF5FFF400
00BFFBFFE000
003FFFFFC000
001FFFFF4000
000BFFFE0000
0003FFFC0000
0001FFF40000
0000FFF00000
0000FFE00000
0000FFE00000
0000FFE00000
0000FFE00000
0000FFE00000
0000FFE00000
0000BFE00000
00007FD00000
ENDCHAR
STARTCHAR Zcaron
ENCODING 381
SWIDTH 643 0
DWIDTH 21 0
BBX 20 31 0 0
BITMAP
007E40BE00
00BFFBFF40
00FFFFFF80
00FFFFFF40
001BFFF900
00006E4000
0000000000
0555555550
3FFFFFFFF8
3FFFFFFFFC
7FFFFFFFFD
3FFFFFFFFC
2FFFFFFFF4
000007FFE0
00000FFFC0
00002FFF40
00007FFE00
0000FFF800
0002FFF000
000BFFD000
001FFF8000
003FFF0000
00BFFD0000
01FFF40000
07FFE00000
0BFFE55554
2FFFFFFFFD
3FFFFFFFFE
3FFFFFFFFE
3FFFFFFFFE
1BFFFFFFFD
ENDCHAR
STARTCHAR zcaron
ENCODING 382
SWIDTH 586 0
DWIDTH 19 0
BBX 17 25 1 0
BITMAP
01A0019000
03FE6FF400
0BFFFFFC00
0BFFFFFC00
02FFFFF400
001BF90000
0000400000
0000000000
2BFFFFF900
7FFFFFFF00
7FFFFFFF40
7FFFFFFF40
7FFFFFFF00
1AAAFFFD00
0003FFF000
001FFF8000
007FFE0000
01FFF80000
0BFFE00000
2FFFEAA900
BFFFFFFF80
FFFFFFFFC0
FFFFFFFFC0
BFFFFFFF80
2FFFFFFF40
ENDCHAR
STARTCHAR florin
ENCODING 402
SWIDTH 529 0
DWIDTH 17 0
BBX 17 31 0 -7
BITMAP
000001AA00
00001FFF40
0000BFFF40
0001FFFF40
0003FFFF00
0007FFE900
0007FF0000
000BFF0000
01BFFFAA00
03FFFFFF40
07FFFFFF40
07FFFFFF40
07FFFFFF00
01AFFEA900
001FFD0000
001FFC0000
002FFC0000
002FFC0000
002FF80000
003FF80000
003FF80000
003FF40000
007FF40000
007FF40000
007FF00000
01BFF00000
2FFFE00000
BFFFC00000
FFFF800000
FFFE000000
BFE4000000
ENDCHAR
STARTCHAR circumflex
ENCODING 710
SWIDTH 603 0
DWIDTH 19 0
BBX 13 7 3 18
BITMAP
001A4000
06FFF900
7FFFFF80
BFFFFFC0
7FFFFF80
2F90BF40
04000400
ENDCHAR
STARTCHAR caron
ENCODING 711
SWIDTH 600 0
DWIDTH 19 0
BBX 13 7 3 18
BITMAP
1A001900
7FE6FF40
BFFFFFC0
BFFFFFC0
2FFFFE40
01BF9000
00040000
ENDCHAR
STARTCHAR dotaccent
ENCODING 729
SWIDTH 285 0
DWIDTH 9 0
BBX 6 6 2 22
BITMAP
7F80
FFD0
FFE0
FFD0
BFD0
1540
ENDCHAR
STARTCHAR ring
ENCODING 730
SWIDTH 378 0
DWIDTH 12 0
BBX 8 9 2 21
BITMAP
0140
1FF8
7FFE
F81F
F00F
F41F
BD7E
3FFC
06A0
ENDCHAR
STARTCHAR ogonek
ENCODING 731
SWIDTH 570 0
DWIDTH 18 0
BBX 7 7 5 -6
BITMAP
07E0
2FF8
7FF8
7E10
7FB4
3FFC
0BF4
ENDCHAR
STARTCHAR tilde
ENCODING 732
SWIDTH 584 0
DWIDTH 19 0
BBX 14 6 2 19
BITMAP
01A40A00
0FFF6FC0
3FFFFFD0
7FFFFF80
7FAFFF00
1E06F800
ENDCHAR
STARTCHAR endash
ENCODING 8211
SWIDTH 561 0
DWIDTH 18 0
BBX 18 6 0 6
BITMAP
0555555500
7FFFFFFFC0
7FFFFFFFD0
7FFFFFFFD0
7FFFFFFFD0
2AAAAAAA80
ENDCHAR
STARTCHAR emdash
ENCODING 8212
SWIDTH 693 0
DWIDTH 22 0
BBX 22 6 0 6
BITMAP
055555555540
7FFFFFFFFFD0
7FFFFFFFFFE0
7FFFFFFFFFE0
7FFFFFFFFFE0
2AAAAAAAAA80
ENDCHAR
STARTCHAR quoteleft
ENCODING 8216
SWIDTH 237 0
DWIDTH 8 0
BBX 7 12 0 12
BITMAP
0014
01F8
07F8
0FD0
1FC0
2F80
3FF4
3FF8
7FF8
3FF8
3FF4
0690
ENDCHAR
STARTCHAR quoteright
ENCODING 8217
SWIDTH 237 0
DWIDTH 8 0
BBX 7 12 0 12
BITMAP
0550
2FF4
3FF8
7FF8
3FF8
2FF8
07F4
07F0
0BE0
3FC0
3F40
2400
ENDCHAR
STARTCHAR quotesinglbase
ENCODING 8218
SWIDTH 237 0
DWIDTH 8 0
BBX 7 11 0 -5
BITMAP
1BE0
3FF8
7FF8
7FF8
3FF8
1FF8
03F4
07F0
1FD0
3F80
3E00
ENDCHAR
STARTCHAR quotedblleft
ENCODING 8220
SWIDTH 482 0
DWIDTH 15 0
BBX 15 12 0 12
BITMAP
00140010
01F802F8
07F80BF4
0FD01FD0
1FC02F80
2F803F80
3FF47FF4
3FF87FF8
7FF87FF8
3FF87FF8
3FF43FF4
06901A90
ENDCHAR
STARTCHAR quotedblright
ENCODING 8221
SWIDTH 482 0
DWIDTH 15 0
BBX 15 12 0 12
BITMAP
05500540
2FF43FF4
3FF87FF8
7FF87FF8
3FF87FF8
2FF83FF4
07F40BF4
07F007F0
0BE00BE0
3FC03FC0
3F407F00
24002400
ENDCHAR
STARTCHAR quotedblbase
ENCODING 8222
SWIDTH 482 0
DWIDTH 15 0
BBX 15 11 0 -5
BITMAP
1BE01FE0
3FF87FF4
7FF87FF8
7FF87FF8
3FF87FF8
1FF82FF4
03F407F0
07F00BE0
1FD01FD0
3F807F80
3E007D00
ENDCHAR
STARTCHAR dagger
ENCODING 8224
SWIDTH 527 0
DWIDTH 17 0
BBX 17 30 0 -6
BITMAP
000BE40000
001FFC0000
001FFD0000
001FFD0000
001FFD0000
001FFD0000
001FFD0000
055FFD5400
7FFFFFFF00
7FFFFFFF40
7FFFFFFF40
7FFFFFFF40
1AAFFEA900
001FFD0000
001FFD0000
001FFD0000
001FFD0000
001FFD0000
001FFD0000
001FFD0000
001FFD0000
001FFD0000
001FFD0000
001FFD0000
001FFD0000
001FFD0000
001FFD0000
001FFD0000
001FFC0000
000BF80000
ENDCHAR
STARTCHAR daggerdbl
ENCODING 8225
SWIDTH 527 0
DWIDTH 17 0
BBX 17 30 0 -6
BITMAP
000BE40000
001FFC0000
001FFD0000
001FFD0000
001FFD0000
001FFD0000
001FFD0000
055FFD5400
7FFFFFFF00
7FFFFFFF40
7FFFFFFF40
7FFFFFFF40
1AAFFEA900
001FFD0000
001FFD0000
001FFD0000
001FFD0000
156FFD6500
7FFFFFFF00
7FFFFFFF40
7FFFFFFF40
7FFFFFFF00
1A6FFE6900
001FFD0000
001FFD0000
001FFD0000
001FFD0000
001FFD0000
001FFC0000
000BF80000
ENDCHAR
STARTCHAR bullet
ENCODING 8226
SWIDTH 342 0
DWIDTH 11 0
BBX 10 10 0 5
BITMAP
01A900
1FFFC0
2FFFE0
3FFFF0
7FFFF0
3FFFF0
3FFFF0
2FFFE0
0BFF80
016500
ENDCHAR
STARTCHAR ellipsis
ENCODING 8230
SWIDTH 911 0
DWIDTH 29 0
BBX 29 6 0 0
BITMAP
1BE000BF8002FD00
3FF801FFD007FF00
7FF801FFE00BFF40
7FF801FFE00BFF40
3FF801FFD007FF40
1FE000BF8002FD00
ENDCHAR
STARTCHAR perthousand
ENCODING 8240
SWIDTH 1223 0
DWIDTH 39 0
BBX 37 26 1 -1
BITMAP
000000002E0000000000
006500003F0000000000
0BFFD000BE0000000000
2FFFF001FC0000000000
3FFFF802F40000000000
7F97FC07F00000000000
BF02FC0BD00000000000
BE01FC1FC00000000000
BF02FC2F400000000000
7F9BF87E000000000000
3FFFF4FD000000000000
1FFFF1F8000000000000
07FF83F4000000000000
005407E06F90002BA000
00000FC1FFFC01FFFD00
00002F87FFFE03FFFF00
00003F0BFFFF47FFFF40
0000BE0FE07F4BF07F80
0000FC0FD03F8FE02F80
0002F80FD03F8FE02F80
0007F00FE07F4BF03F80
000BD00BFFFF4BFEFF80
001FC007FFFF03FFFF00
002F4002FFFD01FFFD00
003F00006FE0006FE400
002D0000000000000000
ENDCHAR
STARTCHAR guilsinglleft
ENCODING 8249
SWIDTH 383 0
DWIDTH 12 0
BBX 12 17 0 0
BITMAP
0001A0
0007F8
001FFE
007FFE
01FFFC
07FFF4
1FFFD0
7FFF40
7FFD00
7FFF00
1FFFC0
07FFF0
01FFFC
007FFE
001FFE
0007FC
0001E0
ENDCHAR
STARTCHAR guilsinglright
ENCODING 8250
SWIDTH 383 0
DWIDTH 12 0
BBX 12 17 0 0
BITMAP
0A4000
2FE000
7FF800
7FFE00
2FFF80
0BFFE0
02FFF8
00BFFD
003FFE
00BFFE
02FFF8
0BFFE0
2FFF80
7FFE00
7FF800
2FE000
0B8000
ENDCHAR
STARTCHAR fraction
ENCODING 8260
SWIDTH 433 0
DWIDTH 14 0
BBX 16 26 1 -1
BITMAP
0000003D
000000BE
000000FC
000002F4
000007F0
00000BD0
00001FC0
00002F40
00007E00
0000BD00
0001F800
0003F400
0007E000
000FD000
001F8000
003F0000
00BE0000
00FC0000
02F80000
03F00000
0BD00000
1FC00000
2F400000
7F000000
BD000000
68000000
ENDCHAR
STARTCHAR Euro
ENCODING 8364
SWIDTH 612 0
DWIDTH 20 0
BBX 19 25 0 0
BITMAP
000016AA90
0001BFFFF8
000BFFFFF8
002FFFFFF8
007FFFFFF8
00BFFFFFE0
00FFF40000
01FFE00000
2BFFEAAA40
7FFFFFFFC0
7FFFFFFFC0
2BFFEAAA40
03FF800000
17FF955500
7FFFFFFFC0
7FFFFFFFC0
7FFFFFFF80
01FFD00000
00FFF00000
00BFFEAA90
007FFFFFF8
002FFFFFF8
000BFFFFF8
0002FFFFF8
00002BFFE0
ENDCHAR
STARTCHAR trademark
ENCODING 8482
SWIDTH 840 0
DWIDTH 27 0
BBX 26 14 0 7
BITMAP
15555405000100
7FFFFF2F800FD0
7FFFFF3FD02FE0
7FFFFF3FF4BFE0
1AFFA53FFDFFE0
00BF403FFFFFE0
00BF403FFFFFE0
00BF403FFFFFE0
00BF403FFFFFE0
00BF403FDFDFE0
00BF403FC51FE0
00BF403FC01FE0
00BF003FC01FD0
00150005000540
ENDCHAR
STARTCHAR minus
ENCODING 8722
SWIDTH 581 0
DWIDTH 19 0
BBX 18 6 0 6
BITMAP
0555555540
3FFFFFFFD0
3FFFFFFFE0
7FFFFFFFE0
3FFFFFFFE0
1AAAAAAA80
ENDCHAR
STARTCHAR f_f
ENCODING 64256
SWIDTH 803 0
DWIDTH 26 0
BBX 26 25 0 0
BITMAP
0001AA4006A900
001FFFC02FFF40
003FFFC0BFFF40
00BFFFC1FFFF40
01FFFFC3FFFF00
01FFFA43FFE900
02FFC007FF4000
02FFC007FF4000
2BFFEAABFFAE40
7FFFFFFFFFFFC0
7FFFFFFFFFFFD0
7FFFFFFFFFFFD0
7FFFFFFFFFFFC0
2BFFEAABFFAA40
02FFC007FF4000
02FFC007FF4000
02FFC007FF4000
02FFC007FF4000
02FFC007FF4000
02FFC007FF4000
02FFC007FF4000
02FFC007FF4000
02FFC007FF4000
01FFC003FF4000
00BF4002FE0000
ENDCHAR
STARTCHAR fi
ENCODING 64257
SWIDTH 709 0
DWIDTH 23 0
BBX 22 25 0 0
BITMAP
0001AA406A40
000FFFC0FFD0
003FFFC1FFD0
00BFFFC1FFD0
01FFFFC0FFD0
01FFFA406E40
02FFC0000000
02FFC0000000
1BFFEA806A40
7FFFFFE0FFD0
7FFFFFF1FFD0
7FFFFFF1FFD0
7FFFFFE1FFD0
2BFFEA81FFD0
02FFC001FFD0
02FFC001FFD0
02FFC001FFD0
02FFC001FFD0
02FFC001FFD0
02FFC001FFD0
02FFC001FFD0
02FFC001FFD0
02FFC001FFD0
01FFC000FFD0
00BF40007F80
ENDCHAR
STARTCHAR fl
ENCODING 64258
SWIDTH 774 0
DWIDTH 25 0
BBX 25 25 0 0
BITMAP
0001AA406A4000
000FFFC1FFC000
003FFFC1FFD000
00BFFFC1FFD000
01FFFFC1FFD000
01FFFA41FFD000
02FFC001FFD000
02FFC001FFD000
1BFFEA81FFD000
7FFFFFE1FFD000
7FFFFFF1FFD000
7FFFFFF1FFD000
7FFFFFE1FFD000
2BFFEA81FFD000
02FFC001FFD000
02FFC001FFD000
02FFC001FFD000
02FFC001FFD000
02FFC001FFD000
02FFC001FFE400
02FFC001FFFF00
02FFC000FFFF40
02FFC000FFFF40
01FFC0007FFF40
00BF40001BFE00
ENDCHAR
STARTCHAR f_f_i
ENCODING 64259
SWIDTH 1059 0
DWIDTH 34 0
BBX 33 25 0 0
BITMAP
0001AA4006A9006900
001FFFC02FFF42FF40
003FFFC0BFFF43FF80
00BFFFC1FFFF43FF80
01FFFFC3FFFF02FF40
01FFFA43FFE901FE00
02FFC007FF40000000
02FFC007FF40000000
2BFFEAABFFAE40A900
7FFFFFFFFFFFC2FF40
7FFFFFFFFFFFD3FF80
7FFFFFFFFFFFD3FF80
7FFFFFFFFFFFC3FF80
2BFFEAABFFAA43FF80
02FFC007FF4003FF80
02FFC007FF4003FF80
02FFC007FF4003FF80
02FFC007FF4003FF80
02FFC007FF4003FF80
02FFC007FF4003FF80
02FFC007FF4003FF80
02FFC007FF4003FF80
02FFC007FF4003FF80
01FFC003FF4003FF40
00BF4002FE0001FE00
ENDCHAR
STARTCHAR .notdef
ENCODING -1
SWIDTH 500 0
DWIDTH 16 0
BBX 1 1 0 0
BITMAP
00
ENDCHAR
STARTCHAR .null
ENCODING -1
SWIDTH 0 0
DWIDTH 0 0
BBX 1 1 0 0
BITMAP
00
ENDCHAR
STARTCHAR nonmarkingreturn
ENCODING -1
SWIDTH 333 0
DWIDTH 11 0
BBX 1 1 0 0
BITMAP
00
ENDCHAR
STARTCHAR f_t
ENCODING -1
SWIDTH 814 0
DWIDTH 26 0
BBX 26 25 0 0
BITMAP
0001AA40000000
001FFFC0000000
003FFFC0690000
00BFFFC2FF4000
01FFFFC3FF8000
01FFFA43FF8000
02FFC003FF8000
02FFC003FF8000
2BFFEAABFFEA80
7FFFFFFFFFFFD0
7FFFFFFFFFFFE0
7FFFFFFFFFFFE0
7FFFFFFFFFFFD0
2BFFEAABFFEA80
02FFC003FF8000
02FFC003FF8000
02FFC003FF8000
02FFC003FF8000
02FFC003FF8000
02FFC002FFD400
02FFC002FFFF40
02FFC001FFFF80
02FFC000BFFF80
01FFC0002FFF80
00BF400006FE00
ENDCHAR
STARTCHAR t_t
ENCODING -1
SWIDTH 794 0
DWIDTH 25 0
BBX 25 23 0 0
BITMAP
00690001A40000
01FF8007FE0000
02FFC00BFF0000
02FFC00BFF0000
02FFC00BFF0000
02FFC00BFF0000
2BFFEAAFFFAA00
7FFFFFFFFFFF80
7FFFFFFFFFFFC0
7FFFFFFFFFFFC0
7FFFFFFFFFFF80
2BFFEAAFFFAA00
02FFC00BFF0000
02FFC00BFF0000
02FFC00BFF0000
02FFC00BFF0000
02FFC00BFF0000
02FFE507FF9400
01FFFF87FFFE00
00FFFFC3FFFF00
007FFFC1FFFF00
002FFFC0BFFF00
0006FF401BFD00
ENDCHAR
STARTCHAR l_l
ENCODING -1
SWIDTH 626 0
DWIDTH 20 0
BBX 19 25 1 0
BITMAP
2A801A9000
BFE03FF400
BFF03FF400
BFF03FF800
BFF03FF800
BFF03FF800
BFF03FF800
BFF03FF800
BFF03FF800
BFF03FF800
BFF03FF800
BFF03FF800
BFF03FF800
BFF03FF800
BFF03FF800
BFF03FF800
BFF03FF800
BFF03FF800
BFF03FF800
BFF93FFE90
BFFF2FFFF4
7FFF5FFFF4
3FFF4FFFF8
1FFF07FFF4
02BD006FE0
ENDCHAR
STARTCHAR j_j
ENCODING -1
SWIDTH 521 0
DWIDTH 17 0
BBX 21 33 -5 -8
BITMAP
0001A4006500
0007FD02FF00
000BFE03FF40
000BFE03FF40
000BFE03FF40
0002F801BE00
000000000000
000000000000
0002A801A900
000BFE03FF40
000BFE03FF40
000BFE03FF40
000BFE03FF40
000BFE03FF40
000BFE03FF40
000BFE03FF40
000BFE03FF40
000BFE03FF40
000BFE03FF40
000BFE03FF40
000BFE03FF40
000BFE03FF40
000BFE03FF40
000BFE03FF40
000BFE03FF40
000FFE07FF40
007FFD07FF40
2FFFFCBFFF00
3FFFF9FFFE00
7FFFE1FFFD00
3FFF81FFF800
3FF900FFE000
054000150000
ENDCHAR
ENDFONT
